<svg xmlns="http://www.w3.org/2000/svg" width="77" height="24" viewBox="0 0 77 24">
    <g fill="000">
        <path d="M74.708 1.877c.338.142.7.45.87.805.531 1.16.41 2.652.41 3.979 0 .615-.145 1.894-.918 2.462-.555.38-1.183.498-1.908.474-.942-.024-1.884-.355-2.27-1.279-.387-.994-.314-2.415-.314-3.647 0-.9.12-2.036.966-2.652.87-.545 2.246-.521 3.164-.142zm-37.416-.19l2.198 5.447V1.687h1.498v7.72h-2.126l-2.246-5.754v5.755h-1.498v-7.72h2.174zm18.793 0l1.328 5.4 1.329-5.4h2.56v7.72h-1.594V3.322l-1.594 6.087h-1.498L55.07 3.345v6.063H53.5v-7.72h2.585zm10.748 0c.629.071 1.208.427 1.426.995.265.71.29 1.8-.242 2.416-.266.26-.628.45-1.087.52.12.024.242.072.387.095.483.095.748.332.917.687.29.734.097 1.681.242 2.487l.097.497h-1.619c-.265-.853.073-2.013-.314-2.795-.241-.45-.966-.426-1.522-.402v3.22h-1.57v-7.72c.049 0 2.657-.047 3.285 0zm-43.31 0l2.15 7.72h-1.666l-.46-1.704h-2.27l-.483 1.705H19.2l2.174-7.72h2.15zm26.064 0l2.15 7.72H50.07l-.459-1.704h-2.27l-.484 1.705h-1.594l2.174-7.72h2.15zm-18.14.095c.458.071.99.521 1.135 1.066.169.663.169 1.468-.338 2.036-.218.237-.556.38-.87.498.242.07.483.165.725.284.749.45.773 1.468.652 2.273-.12.64-.7 1.232-1.304 1.374-.242.047-.556.071-.846.071h-3.116V1.687c1.208 0 3.092-.047 3.962.095zm41.788.947c-.339 0-.894.166-.943 1.445v2.723c.097 1.327.435 1.587 1.04 1.587.627 0 1.014-.284 1.014-1.705V4.198h-.024c-.073-1.516-.798-1.469-1.087-1.469zM29.25 6l-.122-.002v2.25l.171-.007c.574-.01 1.153.117 1.592-.206.386-.355.386-1.042.217-1.492-.295-.669-1.19-.54-1.858-.542zm-6.862-2.914l-.797 3.433h1.595l-.75-3.268-.048-.165zm26.064 0l-.798 3.433h1.595l-.75-3.268-.047-.165zm-4.923.844l1.008.988-1.025 1.005-1.007-.988 1.024-1.005zm21.638-1.105v2.202s1.063.143 1.45-.331c.24-.403.216-1.042.072-1.468-.266-.521-.99-.38-1.522-.403zM29.127 2.8c0 .48.014 1 .01 1.499l-.01.49h1.136v.024l.131-.007c.456-.051.626-.372.714-.632.066-.341.053-.74-.197-1.04l-.092-.097-.17-.118-.072-.04c-.284-.118-.966-.079-1.45-.079zM7.248 4.848L7.248 19.2 0 12 0 0 14.4 0 14.4 11.976z" transform="translate(1 2)"/>
        <path fill-opacity=".5" d="M7.2 19.2L7.2 4.8 14.4 11.964z" transform="translate(1 2)"/>
    </g>
</svg>
