<?xml version="1.0" encoding="UTF-8"?>
<svg width="75px" height="16px" viewBox="0 0 75 16" version="1.1" xmlns="http://www.w3.org/2000/svg" xmlns:xlink="http://www.w3.org/1999/xlink">
    <title>acronis_logo</title>
    <g id="Homepage" stroke="none" stroke-width="1" fill="none" fill-rule="evenodd">
        <g id="acronis_logo" fill="#000000" fill-rule="nonzero">
            <path d="M21.6808059,6.10696266 C23.2089077,6.10696266 24.223754,6.94248234 24.6903499,8.32290616 L26.9883351,8.32290616 C26.4284199,5.67103935 24.3987275,4 21.6808059,4 C18.4379639,4 16,6.62764884 16,10.0423814 C16,13.457114 18.4379639,16 21.6808059,16 C24.3987275,16 26.3700954,14.2563068 27,11.6770938 L24.7020148,11.6770938 C24.2354189,12.9969728 23.2205726,13.8930373 21.6924708,13.8930373 C19.5694592,13.8930373 18.2513256,12.3067608 18.2513256,10.0423814 C18.2396607,7.77800202 19.5577943,6.10696266 21.6808059,6.10696266 Z" id="Path"></path>
            <path d="M32.0464602,5.3998006 L31.9469027,5.3998006 L31.8252212,4.27517448 L30,4.27517448 L30,16 L32.0464602,16 L32.0464602,8.58225324 C32.0464602,7.01495513 33.1637168,6.16550349 34.6238938,6.16550349 C34.9446903,6.16550349 35,6.1894317 35,6.1894317 L35,4.03589232 C35,4.03589232 34.8672566,4 34.6238938,4 C33.9933628,4 32.8318584,4.28713858 32.0464602,5.3998006 Z" id="Path"></path>
            <path d="M54.6977062,4 C52.80616,4 51.6412444,4.83748754 51.1337564,5.3998006 L51.029952,5.3998006 L50.90308,4.27517448 L49,4.27517448 L49,16 L51.1222226,16 L51.1222226,8.61814556 C51.1222226,6.97906281 52.552416,6.11764706 54.3055564,6.11764706 C55.8164866,6.11764706 56.8775978,6.89531406 56.8775978,8.5224327 L56.8775978,16 L58.9998204,16 L58.9998204,8.39082752 C59.022888,5.14855434 56.8199288,4 54.6977062,4 Z" id="Path"></path>
            <rect id="Rectangle" x="62" y="5" width="2" height="11"></rect>
            <path d="M40.9938962,4 C37.5757884,4 35,6.58181818 35,10 C35,13.4181818 37.5757884,16 40.9938962,16 C44.4120041,16 47,13.4181818 47,10 C47,6.58181818 44.4242116,4 40.9938962,4 Z M40.9938962,13.8545455 C38.7721261,13.8545455 37.3316378,12.230303 37.3316378,10 C37.3316378,7.76969697 38.7721261,6.0969697 40.9938962,6.0969697 C43.2156663,6.0969697 44.6561546,7.75757576 44.6561546,10 C44.6561546,12.2424242 43.2156663,13.8545455 40.9938962,13.8545455 Z" id="Shape"></path>
            <path d="M70.8274619,8.74975075 C68.6005045,8.27118644 68.6861567,7.7328016 68.6861567,7.25423729 C68.6861567,6.67996012 69.3469023,5.95014955 70.4236729,5.95014955 C71.3291392,5.95014955 72.2835495,6.39282154 72.2835495,7.87637089 L74.4493268,7.87637089 C74.5227429,5.48354935 72.907587,4 70.4236729,4 C68.2211876,4 66.4224912,5.49551346 66.4224912,7.33798604 C66.4224912,9.65902293 68.3068398,10.3768694 70.3502568,10.8195414 C72.516034,11.2861416 72.6995745,11.9441675 72.6995745,12.4107677 C72.6995745,13.2961117 71.7818723,14.0498504 70.4970891,14.0498504 C69.5793869,14.0498504 68.1722435,13.4875374 68.1722435,11.77667 L66.0064662,11.77667 C65.8718699,14.4566301 67.8541067,16 70.4970891,16 C73.0177113,16 75,14.4207378 75,12.3150548 C75.0121841,9.94616152 72.8586429,9.18045862 70.8274619,8.74975075 Z" id="Path"></path>
            <path d="M7.03170029,0 L0,16 L2.23631124,16 L3.61959654,12.774003 L12.3804035,12.774003 L13.7636888,16 L16,16 L8.96829971,0 L7.03170029,0 Z M7.95389049,2.72968981 L8.04610951,2.72968981 L8.14985591,3.02511078 L10.1556196,7.68094535 L5.85590778,7.68094535 L7.85014409,3.02511078 L7.95389049,2.72968981 Z M4.40345821,10.9778434 L5.06051873,9.47710487 L10.9394813,9.47710487 L11.5965418,10.9778434 L4.40345821,10.9778434 Z" id="Shape"></path>
        </g>
    </g>
</svg>