<svg xmlns="http://www.w3.org/2000/svg" width="35" height="24" viewBox="0 0 35 24">
    <path d="M22.037 15.796v7.963h-1.43v-.327c-.487.315-1.057.5-1.675.5h-.016c-1.706-.011-3.094-1.412-3.094-3.13s1.388-3.12 3.094-3.13h.016c.618 0 1.188.185 1.675.5v-2.376h1.43zm3.607 1.876c.618 0 1.193.185 1.675.5v-.342h1.43v5.929h-1.43v-.327c-.482.315-1.057.5-1.675.5h-.016c-1.707-.011-3.094-1.412-3.094-3.13s1.387-3.12 3.094-3.13zm-22.54 0c.618 0 1.195.185 1.682.5v-.342h1.428v5.929H4.786v-.327c-.487.315-1.064.5-1.681.5h-.016C1.387 23.92 0 22.52 0 20.802s1.387-3.12 3.089-3.13zm9.89-1.876v7.963h-1.429v-.327c-.487.315-1.062.5-1.68.5h-.016c-1.707-.011-3.094-1.412-3.094-3.13s1.387-3.12 3.094-3.13h.016c.618 0 1.193.185 1.68.5v-2.376h1.43zm18.98 1.807c.686 0 1.235.1 1.65.295.036.016.067.032.099.053.596.327.9.864.9 1.613h-1.518c-.047-.253-.121-.432-.22-.533-.163-.163-.44-.247-.822-.247-.377 0-.639.063-.785.19-.11.095-.168.226-.168.39 0 .231.32.416.953.558.723.158 1.241.295 1.56.406.084.032.157.058.21.084.643.306.963.77.963 1.39 0 .76-.314 1.313-.937 1.661-.079.042-.152.08-.236.116-.403.174-.874.263-1.403.263-.79 0-1.43-.142-1.916-.421-.613-.359-.917-.901-.917-1.628h1.592c0 .274.1.49.294.638.193.152.523.231.99.231.35 0 .611-.073.784-.221.137-.116.2-.243.2-.39 0-.248-.315-.443-.938-.58-.932-.2-1.518-.363-1.76-.48-.638-.3-.953-.763-.953-1.406 0-.516.163-.954.498-1.312.42-.448 1.047-.67 1.88-.67zm-16.712.069v6.086h-1.555v-6.086h1.555zm3.67 1.412h-.016c-.937.005-1.696.775-1.696 1.718s.76 1.712 1.696 1.723h.016c.827 0 1.523-.606 1.675-1.396v-.654c-.152-.79-.848-1.39-1.675-1.39zm6.712 0h-.016c-.937.005-1.695.775-1.695 1.718s.758 1.712 1.695 1.723h.016c.827 0 1.524-.606 1.675-1.396v-.654c-.151-.79-.848-1.39-1.675-1.39zm-22.54 0H3.09c-.932.005-1.691.775-1.691 1.718s.76 1.712 1.69 1.723h.017c.832 0 1.529-.606 1.68-1.396v-.654c-.151-.79-.848-1.39-1.68-1.39zm6.78 0H9.87c-.937.005-1.696.775-1.696 1.718s.76 1.712 1.696 1.723h.016c.832 0 1.529-.606 1.68-1.396v-.654c-.151-.79-.848-1.39-1.68-1.39zm5.378-3.256v1.375h-1.555v-1.375h1.555zm-6.586-4.4l1.193 1.998 1.414 2.37H4.377l-.775-1.301 5.074-3.067zM20.875.632l4.753 7.956 4.299 7.208H23.02L18.916 8.91l-3.11-5.212 3.11-1.88L20.875.631zm-6.1 5.395l4.14 6.934 1.687 2.835h-6.9L9.869 9.378 9.701 9.1 9.87 9l4.906-2.972z"/>
</svg>
