<svg xmlns="http://www.w3.org/2000/svg" width="63" height="20" viewBox="0 0 63 20">
    <g fill="none" fill-rule="evenodd">
        <path fill="#000105" d="M12.592.013l9.774 3.722 1.278-.36.408.642-.205.28.66.252c.984-.988 1.96-1.402 3.172-1.402 1.03 0 1.65.125 1.961.637l.041.065.02.032.021.032.04.064c.015.021.028.043.041.065.015.02.028.042.041.064l.041.064c.014.021.028.042.04.064.015.021.029.043.042.064l.04.064c.204.303.296.66.296 1.02 0 .254-.046.52-.125.784L62.96.433 50.156 20l-24.684-4.731c-1.156.536-2.34.828-3.565.828-.456 0-.84-.046-1.16-.131L0 19.256 12.592.012zM27.51 4.181c-.655 0-1.269.363-1.796.829l2.03.772c.218-.451.33-.885.33-1.206 0-.096-.008-.189-.022-.276-.139-.076-.316-.12-.542-.12z"/>
        <path fill="#FFF" d="M39.995 12.516c-.784.87-1.317 1.16-1.713 1.16-.247 0-.365-.124-.365-.352 0-.62.755-1.992 1.55-3.006.834-1.065 1.539-1.558 2.198-1.558.417 0 .599.266.593.55-.001.093-.03.19-.085.284-.58.983-1.376 2.044-2.178 2.922M23.238 8.588h.64c1.347 0 1.653.753 1.653 1.597 0 1.864-1.835 4.704-4.506 4.704-1.15 0-1.58-.55-1.58-1.342 0-1.47 1.322-2.892 3.45-2.927v-.447c-.606 0-1.547.157-2.278.637 1.11-1.615 2.72-4.085 3.425-5.02.468.269.888.553 1.246.833l.267-.343c-.281-.218-.673-.508-1.236-.843.647-.823 1.656-1.898 2.782-1.898.743 0 .972.462.972 1.037 0 .841-.761 2.45-2.215 3.134-.654.305-1.563.328-2.716.328l-.397.587c.102-.021.275-.037.493-.037m-6.076 5.738c-.301.26-.517.39-.715.39-.166 0-.232-.098-.232-.216 0-.14.068-.354.367-.858.354-.597 3.484-5.176 4.689-6.934.379-.555.812-1.168 1.212-1.724.358.165.715.337 1.068.523-.84 1.13-2.047 3.024-3.265 4.788-1.362 1.974-2.349 3.365-3.124 4.031m-1.848-6.519c-1.73.005-2.706-.678-2.702-1.787.004-1.44 1.54-2.454 4.06-2.454 1.8 0 3.3.41 4.314.796l-1.085 1.492c-.543.609-2.019 1.945-4.587 1.953m30.325 3.172c-1.079 1.513-2.272 2.694-3.23 2.694-.22 0-.39-.096-.39-.393 0-.357.32-1.063.759-1.843.788-1.405 4.637-7.586 4.637-7.586l-1.76.105s-.171.296-3.035 4.966c-.224-.393-.596-.66-1.278-.66-1.41 0-2.679.933-3.748 2.283l-.17.21c-1.72 2.202-2.731 2.92-3.272 2.92-.168 0-.253-.083-.253-.252 0-.073.016-.163.047-.269.103-.346.477-1.013.951-1.74 0 0 .466-.731 1.893-2.904l-1.761.108s-1.488 2.239-1.899 2.77c-.9 1.158-2.165 2.283-2.836 2.283-.198 0-.264-.108-.264-.214 0-.157.071-.36.34-.821.478-.816 2.69-4.135 2.69-4.135l-1.734.107c-.198.28-.585.809-.8 1.072-.928 1.129-3.05 3.124-4.507 3.958.758-.842 1.404-1.921 1.404-3.1 0-1.404-.888-1.79-1.39-2.058 0 0 .333-.071.434-.099 1.038-.282 1.803-.714 2.343-1.247.588-.581 1.084-1.552 1.084-2.395 0-.93-.602-1.841-2.21-1.841-1.489 0-2.632.703-3.859 2.25-.353-.19-.717-.372-1.078-.541.383-.532.713-.98.897-1.232l-1.989.085c-.128.16-.248.322-.394.52-1.192-.445-2.745-.87-4.685-.87-2.932 0-4.74 1.156-4.74 2.9 0 1.341 1.137 2.253 3.399 2.253 1.563 0 2.787-.46 3.67-1.003-1.38 1.96-3.21 4.657-3.876 5.745-.328.536-.558.97-.558 1.378 0 .686.686 1.07 1.472 1.07.947 0 1.711-.674 2.678-1.889l.34-.449s-.05.242-.05.461c0 1.018.626 1.879 2.588 1.879 2.676 0 5.154-1.393 7.58-3.684l.512-.484c-.773 1.05-1.084 1.778-1.084 2.224 0 .56.393.894 1.026.894.97 0 2.02-.757 2.854-1.609l.379-.39c-.251.48-.379.857-.379 1.169 0 .457.279.837.958.837 1.193 0 2.311-1.045 3.264-2.06-.14.33-.268.728-.268 1.04 0 .64.416 1.017 1.109 1.017.898 0 1.803-.461 2.842-1.62.132-.149.4-.457.657-.785-.195.403-.408.932-.408 1.375 0 .722.453 1.025 1.128 1.025 1.814 0 3.393-1.907 4.433-3.425h-.463"/>
    </g>
</svg>
