<svg xmlns="http://www.w3.org/2000/svg" width="58" height="14" viewBox="0 0 58 14">
    <path fill-rule="evenodd" d="M.011 7.526C.6 2.806 10.038-.845 20.72 1.006l-2.343 4.821c-3.031-1.907-8.46-1.734-9.804.927-1.014 3.035 5.086 3.258 8.667 1.44l-2.41 4.957C5.8 14.266-.297 12.106.011 7.526zM20.21 4.9C21.89.431 32.636-.437 37.662 1.337l-1.763 3.7c-2.424-1.508-6.931-1.373-7.57-.637-.636 1.389 7.532.184 8.19 3.515.419 4.923-9.953 6.898-18.314 4.52l1.902-3.933c1.647 1.086 6.59 2.076 7.903.954 1.547-1.858-9.366.035-7.8-4.555zm34.224 6.252c.65 0 1.158.51 1.158 1.152 0 .626-.509 1.135-1.158 1.135-.628 0-1.138-.509-1.138-1.135 0-.643.51-1.152 1.138-1.152zM57.64.493l-2.032 4.162h-4.65l-4.28 8.785H38.78l4.249-8.785h-5.11L39.939.493H57.64zM54.434 11.34c-.528 0-.955.424-.955.965 0 .524.427.947.955.947.543 0 .97-.423.97-.947 0-.54-.427-.965-.97-.965zm.152.323c.078.001.14.007.19.032.048.017.1.068.134.118.052.07.067.136.067.204 0 .086-.032.17-.1.235-.053.053-.156.102-.272.121.06.017.146.111.202.186l.036.052.24.355h-.223l-.17-.271c-.05-.084-.188-.255-.222-.274 0 0-.022-.015-.043-.025l-.026-.009h-.304v.579h-.17v-1.304h.661zm-.084.135h-.407v.44h.373c.086 0 .137-.016.187-.035.053-.016.083-.033.102-.065.02-.035.035-.086.035-.121 0-.051-.009-.093-.037-.125l-.074-.06c-.044-.026-.102-.034-.179-.034z"/>
</svg>
