<svg xmlns="http://www.w3.org/2000/svg" width="73" height="16" viewBox="0 0 73 16">
    <path d="M63.474 12.726c.17.053.298.116.458.18.319.583.117 1.367-.107 1.918l-.032.519c-.032.233-.245.424-.372.583-.288 0-.543.021-.713-.17.16-.36-.32-.508-.245-.847-.139-.668-.181-1.526.372-2.003.107-.074.234-.159.373-.106.085-.095.18.021.266-.074zm4.481-.731c.17.084.277.265.458.392.468.604.692 1.314.852 2.045-.15.159-.043.37-.16.498-.021.085-.053.17-.106.233-.362.032-.65-.127-.937-.254-.277-.212-.447-.403-.713-.604-.32-.53-.99-1.124-.522-1.77.213-.032.255-.339.479-.328.213-.106.383-.329.65-.212zm-24.43-8.71c.81 0 1.523.201 2.332.646l.096.053v1.41l-.298-.234c-.713-.561-1.33-.773-2.193-.773-1.884 0-3.364 1.568-3.364 3.581s1.48 3.592 3.364 3.592c.862 0 1.575-.243 2.182-.763l.298-.265v1.4l-.085.052c-.563.368-1.2.584-1.932.648.173.13.337.266.548.38.394.212 1 .392 1.735.456.767.063 1.437-.075 1.874-.234-.128.16-.34.424-.607.604-.287.212-.862.456-.873.498l-.015.015c.01.066.389.334.313.41 0 .18-.809-.128-.883-.011-.064.106.032.307-.266.35-.575.169-1.714-.223-1.959-.308-1.011-.35-2.054-1.166-2.725-1.314-.848-.195-1.345.162-1.456.255l-.024.02c.128-.667.735-1.197 1.278-1.462.16-.08.304-.142.445-.19-.39-.21-.751-.48-1.073-.806-.863-.88-1.31-2.023-1.31-3.327 0-2.67 1.98-4.683 4.599-4.683zm17 7.64c-.01.074.096.116.15.169h.127l-.021.18c.042.053.106 0 .149-.021.053.074-.053.328.149.328-.043.032 0 .096-.043.128.064.02.022.084.064.116-.617.795-1.32 1.494-2.054 2.12-.117-.117-.181.158-.266.084l-.32-.021c-.064-.106.128-.212 0-.307h-.117c-.117-.223-.042-.467.022-.71.149-.647.617-1.219 1.181-1.653.298-.202.607-.36.98-.413zm-38.97-7.502c2.087 0 3.662 1.43 3.662 3.327 0 1.165-.479 2.045-1.65 2.988.266.7.852 1.314 1.597 1.674l.096.053v1.282l-.256-.106c-.873-.36-1.48-.805-1.937-1.399-.266-.35-.458-.72-.596-1.027v2.288h-1.182v-9.08zm43.09-.138c1.075 0 2.086.36 2.916 1.06 1.076.89 1.661 2.172 1.661 3.623 0 1.134-.351 2.172-1.022 2.988-.883 1.113-2.107 1.696-3.523 1.696-1.235 0-2.395-.488-3.268-1.367-.862-.87-1.32-2.024-1.32-3.317 0-1.134.351-2.161 1.022-2.977.862-1.102 2.118-1.706 3.534-1.706zm-60.047 0c.81 0 1.523.201 2.332.646l.095.053v1.41l-.298-.234c-.713-.561-1.33-.773-2.192-.773-1.884 0-3.364 1.568-3.364 3.581s1.48 3.592 3.364 3.592c.862 0 1.575-.243 2.182-.763l.298-.265v1.389l-.085.053c-.682.445-1.47.667-2.406.667-1.214 0-2.352-.487-3.215-1.356C.458 10.405 0 9.26 0 7.958c0-2.66 1.98-4.673 4.598-4.673zm8.037.138v6.325c0 1.092.5 1.738 1.341 1.738.895 0 1.384-.604 1.384-1.695V3.423h1.16V9.79c0 1.727-.99 2.85-2.512 2.85-.83 0-1.532-.339-2.033-.996-.468-.615-.51-1.187-.51-1.886V3.423h1.17zm40.333-.202l.127.149c2.012 2.161 2.906 4.704 2.906 8.254l-.01.88h-1.107v-.499c0-1.123-.043-2.013-.128-2.691h-3.609c-.085.826-.127 1.812-.127 3.01v.18l-1.086.01-.01-.837c0-3.592.893-6.146 2.905-8.307l.139-.149zm-20.513 0l.118.149c2.011 2.161 2.906 4.704 2.906 8.254l-.011.88h-1.096v-.499c0-1.123-.043-2.002-.128-2.691h-3.609c-.085.816-.127 1.801-.127 3.01v.18l-1.086.01-.01-.837c0-3.582.893-6.146 2.905-8.307l.138-.149zm32.19 1.155c-1.937 0-3.396 1.537-3.396 3.582 0 2.013 1.501 3.592 3.417 3.592 1.937 0 3.406-1.547 3.406-3.592 0-2.003-1.5-3.582-3.427-3.582zm5.77 5.245c.68.244 1.32.657 1.883 1.134.043.233.054.498-.117.678-.51-.021-1.117-.063-1.66-.042-.192-.064-.373-.117-.564-.18-.235-.18-.533-.34-.597-.657-.117-.096-.117-.255-.17-.371.117-.16.021-.286.15-.435.244-.392.702-.106 1.074-.127zM59.13 7.788c.128.117.074.318.213.445.191.106.138.318.213.52-.117.073.042.137.021.222.234.116-.117.212-.021.402-.075.191-.256.255-.426.276-.458.275-1.107.117-1.629.148-.202-.053-.468-.074-.692-.063.022-.127-.117-.106-.17-.149-.149-.031-.128-.264-.245-.36 0-.212-.032-.445.107-.604.638-.35 1.33-.678 2.043-.911.213-.117.394.032.586.074zm-36.66-3.03v4.121c.128-.053.298-.116.5-.275.713-.53 1.054-1.134 1.054-1.844 0-.964-.628-1.759-1.554-2.002zm9.984.063c-.777 1.05-1.298 2.14-1.596 3.349h3.204c-.256-1.124-.788-2.226-1.608-3.349zm20.513 0c-.777 1.05-1.299 2.14-1.597 3.349h3.204c-.266-1.124-.788-2.226-1.607-3.349zM71.606 6.2c.16.084.469-.117.522.17.192.063.426.105.543.264.085.021.17.117.213.19.074.478-.394.71-.703.912-.65.212-1.469.583-2.14.17-.35-.297-.52-.784-.446-1.166.35-.742 1.33-.583 2.011-.54zm-11.74-1.706c.266.148.446.36.521.646-.085.148 0 .487-.266.456.053.137-.075.222-.213.212.021.01.021.042.021.063-.085.117-.223.085-.33.17-.436.032-.777-.276-1.15-.435-.34-.265-.957-.424-.84-.985.234-.223-.075-.668.372-.752.724-.202 1.267.392 1.884.625zm10.186-1.95c.128.085.341.074.373.254.064-.031.096.053.149.085.032.043 0 .223.149.17.01.201-.16.339-.256.508-.372.7-.979 1.441-1.862 1.325l-.266-.138c.02-.032.053-.053.042-.085-.021-.074-.096-.032-.149-.042.021-.233-.298-.212-.255-.456-.064-.127 0-.222.106-.328.405-.138.703-.52 1.075-.742.288-.212.564-.434.894-.551zM62.676.784c.234.827.82 1.642.521 2.522-.138-.021-.16.19-.277.148-.063.17-.234-.106-.244.117-.086 0-.15.021-.235-.021l-.042.074c-.053-.096-.192.021-.224-.106-.032.106-.085-.01-.149.021-.372-.572-.457-1.26-.702-1.875-.117-.382-.117-.87.032-1.23.213-.17.574-.074.798-.254.383-.053.362.403.522.604zm3.768-.72c.447.307.394.89.479 1.388.042.35-.139.614-.16.932-.117.34-.394.7-.734.816-.17.032-.298.021-.48.021-.02-.127-.148-.01-.234-.032-.074-.053-.074-.254-.212-.127-.075-.095-.181-.127-.224-.222.256-.859.17-1.95.894-2.607.234-.032.405-.35.67-.17z"/>
</svg>
