<svg xmlns="http://www.w3.org/2000/svg" width="24" height="24" viewBox="0 0 24 24">
    <path fill="#181314" d="M10.541 8.76l-.003.016c-.066.33-.1.686-.1 1.068v2.217h-2.54v2.909h2.54V22C5.656 21.244 2 17.082 2 12.06 2 6.506 6.478 2 12 2s10 4.505 10 10.06c0 5.023-3.656 9.186-8.438 9.94v-7.03h2.33l.444-2.91h-2.774v-1.887c0-.114.008-.227.026-.338.01-.065.023-.13.04-.193l.03-.1c.023-.066.05-.13.08-.192l.051-.092c.028-.046.06-.09.093-.134.031-.039.065-.076.102-.112l.081-.073c.254-.208.62-.337 1.127-.337h1.262V6.126s-1.145-.197-2.24-.197c-1.931 0-3.297.996-3.673 2.83z"/>
</svg>
