<svg xmlns="http://www.w3.org/2000/svg" width="24" height="24" viewBox="0 0 24 24">
    <path fill="#181314" d="M17.005 2C19.764 2 22 4.236 22 6.995v10.01C22 19.764 19.764 22 17.005 22H6.995C4.236 22 2 19.764 2 17.005V6.995C2 4.236 4.236 2 6.995 2h10.01zm-.281 2H7.276C5.476 4 4 5.467 4 7.276v9.448C4 18.524 5.467 20 7.276 20h9.448c1.8 0 3.276-1.467 3.276-3.276V7.276C20 5.476 18.533 4 16.724 4zM12 7c2.761 0 5 2.239 5 5s-2.239 5-5 5-5-2.239-5-5 2.239-5 5-5zm0 2c-1.657 0-3 1.343-3 3s1.343 3 3 3 3-1.343 3-3-1.343-3-3-3zm5.241-3.241c.553 0 1 .447 1 1 0 .552-.447 1-1 1-.552 0-1-.448-1-1 0-.553.448-1 1-1z"/>
</svg>
