<?xml version="1.0" encoding="UTF-8"?>
<svg width="336px" height="64px" viewBox="0 0 336 64" version="1.1" xmlns="http://www.w3.org/2000/svg" xmlns:xlink="http://www.w3.org/1999/xlink">
    <title>Logo / Ajax / Default</title>
    <g id="Visuals" stroke="none" stroke-width="1" fill="none" fill-rule="evenodd">
        <g id="Logos-/-Ajax-/-Default" transform="translate(0.000000, 16.000000)" fill="#181314" fill-rule="nonzero">
            <g id="Logos/Ajax/Emblem/Black" transform="translate(-1.000000, -16.000000)">
                <path d="M1.34001947,39.8661146 C1.34001947,53.0393885 11.8985907,63.7557962 24.8799006,63.7557962 C26.0858299,63.7557962 27.2947838,63.6629346 28.4808372,63.4785271 L29.0718356,63.3787006 L29.10477,63.5677707 C27.7204949,63.8226497 26.2991685,63.9490446 24.8799006,63.9490446 C11.925494,63.9490446 1.36276182,53.3609182 1.15280262,40.263758 L1.14961732,39.8661146 L1.34001947,39.8661146 Z M30.7257613,60.8424459 L32.0359339,62.8543185 L31.621166,62.9702675 L31.3247561,62.4814013 L30.5765272,62.6934522 L30.5662351,63.2690191 L30.1648468,63.3818344 L30.2904093,60.9667516 L30.7257613,60.8424459 Z M2.73561578,39.8661146 C2.73561578,52.2580382 12.6684329,62.3414268 24.8788714,62.3414268 C26.0151091,62.3414268 27.1536153,62.2531699 28.2710573,62.0786296 L28.827915,61.9841783 L28.9833243,62.8626752 C27.6371296,63.1091975 26.2559421,63.2335032 24.8788714,63.2335032 C12.3116501,63.2335032 2.06246678,52.959683 1.85873983,40.2519349 L1.85564908,39.8661146 L2.73561578,39.8661146 Z M34.5698263,59.3225732 L35.4899319,61.414879 L35.1132444,61.5872357 L34.342373,59.8406879 L34.3361977,59.8438217 L34.5389503,61.8483822 L34.2425405,61.9831338 L32.928251,60.4831083 L32.923105,60.486242 L33.6929472,62.2317452 L33.3152305,62.4030573 L32.3940958,60.309707 L33.0126455,60.0266242 L34.1715256,61.3772739 L34.1766716,61.3741401 L33.9646563,59.5952102 L34.5698263,59.3225732 Z M30.5971112,61.2414777 L30.5899068,61.2425223 L30.5724103,62.3591847 L31.1528796,62.1951847 L30.5971112,61.2414777 Z M3.47355277,39.8661146 C3.47355277,51.8454268 13.0770256,61.5903694 24.8799006,61.5903694 C25.9782049,61.5903694 27.0772654,61.5059498 28.1563419,61.3377684 L28.6941189,61.2467006 L28.7280825,61.4368153 C27.4662823,61.6666242 26.1715476,61.7836178 24.8799006,61.7836178 C13.0911257,61.7836178 3.47815916,52.1466004 3.28707871,40.2279759 L3.28417982,39.8661146 L3.47355277,39.8661146 Z M36.6570456,58.0972739 L36.8248053,58.4054268 C36.720856,58.4252739 36.5788263,58.4472102 36.4172418,58.5527134 C36.2391901,58.6634395 36.2093432,58.8169936 36.2916793,58.9486115 C36.3832782,59.0958981 36.5139867,59.088586 36.6570456,59.0802293 L36.9369882,59.0666497 C37.2406025,59.0488917 37.4238002,59.1042548 37.5915599,59.3758471 C37.8385681,59.7707006 37.679042,60.1363057 37.3157341,60.370293 C37.1243028,60.4925096 36.9596306,60.5593631 36.8248053,60.5614522 L36.6498412,60.2334522 C36.7455569,60.2344968 36.9421342,60.2115159 37.1284196,60.0934777 C37.2797121,59.9931975 37.366165,59.8197962 37.2436901,59.6265478 C37.1572372,59.4886624 37.0388791,59.4782166 36.8103965,59.4928408 L36.5695635,59.5064204 C36.3132925,59.5220892 36.0981895,59.4479236 35.9427802,59.1982675 C35.7266481,58.851465 35.8944078,58.4900382 36.2155184,58.2842548 C36.418271,58.1547261 36.5932351,58.1160764 36.6570456,58.0972739 Z M39.0983099,49.0918981 C40.0832551,49.3708025 41.2349308,49.7750573 41.2833033,49.7938599 C41.4757638,49.861758 41.5786839,50.0769427 41.5128151,50.2743694 C41.4438586,50.469707 41.230814,50.5741656 41.0383535,50.5052229 C41.0301199,50.5020892 39.8609477,50.0905223 38.8996742,49.8189299 C37.9600138,49.5525605 37.4557054,49.5473376 37.223106,49.7917707 C37.212814,49.8126624 37.19223,49.8659363 37.19223,49.995465 C37.19223,50.287949 37.2930917,50.9533503 37.8179841,52.4397962 C37.9332546,52.7709299 37.9991235,53.1428025 37.9991235,53.4875159 C37.9991235,54.0087643 37.8478309,54.4746497 37.4783478,54.6762548 C36.9596306,54.9599643 36.2526383,54.634917 35.7782703,54.1444407 L35.6866379,54.043758 L35.5545543,53.9069022 C34.8389997,53.1773173 34.5446412,53.0226752 34.4380886,52.9892484 C34.2929713,53.1835414 34.0006783,53.9053503 33.7783709,54.8997962 C33.5056327,56.1083822 33.1721716,57.2918981 32.3663074,57.3326369 C32.2016352,57.339949 32.0410799,57.2751847 31.9144882,57.1487898 C31.5079539,56.7393121 31.4462018,55.5067006 31.4462018,54.7545987 C31.4462018,54.5080764 31.4534063,54.3127389 31.4554647,54.2155924 C31.4595815,54.1664968 31.4595815,54.1153121 31.4595815,54.059949 C31.4595815,53.464535 31.3371066,52.5693248 31.2146317,52.2549045 C31.0015871,52.3332484 30.5724103,52.6278217 30.3212853,52.9046369 C30.1957228,53.0467006 29.0461055,54.3357197 28.1867228,55.9673631 C27.3890922,57.478879 26.6820313,59.4531465 26.675856,59.471949 C26.6058704,59.6693758 26.3917966,59.7707006 26.1993361,59.6986242 C26.0068755,59.6286369 25.9060138,59.4124076 25.9759995,59.2149809 C26.0068755,59.1324586 26.7067321,57.1728153 27.5311219,55.6111592 C28.4152054,53.9356433 29.5535015,52.6382675 29.7747797,52.3959236 C29.7850717,52.3833885 30.8461778,51.2698599 31.5172167,51.5174268 C32.128562,51.7430573 32.1958392,53.5418518 32.2012276,54.0920627 L32.2011016,54.2124199 C32.2004917,54.2350913 32.1995768,54.2483227 32.1995768,54.2490191 C32.1923724,54.4046624 32.1882556,54.5603057 32.1882556,54.7180382 C32.1882556,55.5171465 32.2777961,56.2859618 32.3982126,56.5439745 C32.5175999,56.4510064 32.7450533,56.0906242 33.0517551,54.7316178 C33.2390697,53.9032611 33.6291368,52.4847134 34.153,52.2726624 C34.5888395,52.0935434 35.115203,52.3897486 36.065503,53.358454 L36.2278689,53.5261656 L36.2391901,53.5407898 C36.5654467,53.9168408 36.9956527,54.0829299 37.1263612,54.0129427 C37.223106,53.9596688 37.371311,53.421707 37.1140108,52.6915414 C36.402833,50.6671338 36.2793289,49.7113376 36.6724836,49.2820127 C37.2354565,48.6730191 38.1689416,48.8307516 39.0983099,49.0918981 Z M17.288238,54.4674967 L17.3626178,54.4798726 C17.4037859,54.4903185 18.4031399,54.7702675 19.126668,55.5599745 C19.5476112,56.0195924 19.8965102,56.822879 20.0097223,57.3462166 C20.100292,57.7577834 20.1527812,58.536 20.1548397,58.5683822 C20.1692485,58.7772994 20.0148683,58.9569682 19.8100574,58.9715924 C19.6042172,58.9862166 19.4271947,58.8274395 19.4138151,58.6195669 C19.4117567,58.6112102 19.362355,57.8653758 19.2841358,57.5112611 C19.1935661,57.0871592 18.8971562,56.4196688 18.5822208,56.0739108 C18.0079267,55.4461146 17.1773617,55.2110828 17.1701573,55.2089936 C16.9715215,55.1546752 16.8541926,54.9468025 16.9087403,54.746242 C16.9481072,54.5958217 17.0719972,54.4906449 17.2152813,54.4703734 L17.288238,54.4674967 Z M38.64752,56.5168153 L38.8513017,56.780051 L38.458147,57.0965605 L39.6602536,58.6300127 L39.3381137,58.8922038 L38.1360072,57.3587516 L37.7397649,57.6794395 L37.5328955,57.4172484 L38.64752,56.5168153 Z M40.2808617,54.9436688 L40.5114027,55.1818344 L39.9659262,55.735465 L40.3868694,56.1689682 L40.9055866,55.6456306 L41.138186,55.8858854 L40.620498,56.4071338 L41.0898135,56.8886879 L41.66102,56.3120764 L41.8936194,56.5512866 L41.0280615,57.4224713 L39.4358878,55.7939618 L40.2808617,54.9436688 Z M42.3896942,53.3548535 C42.590517,53.5184618 42.6463511,53.7468507 42.5709863,53.9518466 L42.5306947,54.0380127 C42.5898002,53.9932448 42.6640287,53.9500117 42.8162484,53.9872513 L42.8991486,54.0129427 L43.7544144,54.3263185 L43.480647,54.6752102 L42.7684401,54.3858599 C42.6209213,54.3275372 42.5198595,54.35046 42.4348789,54.4304482 L42.3855774,54.4850955 L42.3269129,54.5582166 L43.0854339,55.1745223 L42.8271045,55.5035669 L41.0630543,54.0683057 L41.5045815,53.5094522 C41.7557065,53.1918981 42.0665251,53.0916178 42.3896942,53.3548535 Z M41.7235612,53.7511356 L41.6754288,53.8082038 L41.5694211,53.9429554 L42.0901967,54.3649682 L42.1951752,54.2323057 C42.3330881,54.0568153 42.3351465,53.8677452 42.158124,53.7215032 C41.9788143,53.5757254 41.8515492,53.611525 41.7235612,53.7511356 Z M44.4408914,51.1706242 C45.0451009,51.5489036 45.1526226,52.0864243 44.8956676,52.5980418 L44.8350753,52.7072102 L44.5263151,53.214879 L42.6027387,52.0125605 L42.9135574,51.5028025 C43.2820113,50.8938089 43.8058745,50.7726369 44.4408914,51.1706242 Z M11.2985666,49.3373758 C12.5982414,49.6318098 14.3524662,50.2456363 15.3244824,50.6378597 L15.5203484,50.7183185 L15.6685533,50.7778599 C18.2415553,51.8579618 19.0813832,52.0470318 19.3551506,52.0428535 C19.352063,51.9561529 19.2686977,51.7618599 18.8209954,51.3429809 C18.7427761,51.2698599 18.7016081,51.1674904 18.7016081,51.0661656 C18.7016081,50.9763312 18.7345425,50.8833631 18.7993822,50.8091975 C18.9403827,50.6566879 19.1740113,50.6472866 19.3253038,50.7893503 C19.6155384,51.0609427 20.4975635,51.8872102 19.9026855,52.5902166 C19.581489,52.9710552 18.8546279,52.9164683 15.6640533,51.5932343 L15.3844939,51.4766879 L15.2362889,51.4161019 C14.3460302,51.0421401 12.4852351,50.3798726 11.1369821,50.0727643 C9.87415266,49.7844586 8.58765164,49.9118981 8.57427203,49.9139873 C8.36946107,49.934879 8.18626332,49.783414 8.1656793,49.5776306 C8.14612449,49.369758 8.292271,49.1848662 8.49708197,49.1629299 C8.55471721,49.1566624 9.9142915,49.0229554 11.2985666,49.3373758 Z M43.2276465,51.6104136 L43.1636532,51.7033631 L43.0895507,51.8234904 L44.474855,52.6884076 L44.5468991,52.5672357 C44.7908197,52.1650701 44.6333519,51.8140892 44.2113796,51.5508535 C43.8236282,51.3095541 43.472199,51.299101 43.2276465,51.6104136 Z M24.3375118,46.5796688 C24.5299723,46.6005605 24.672002,46.7645605 24.672002,46.9557197 C24.672002,46.9672102 24.6709728,46.9797452 24.6709728,46.9933248 C24.666856,47.0309299 24.5762864,47.9010701 24.1718105,48.7816561 C23.9453863,49.2757452 23.4276983,50.2273631 23.0314559,50.943949 C23.3834426,50.8105405 23.7550891,50.6740621 24.0083446,50.5956908 L24.1244672,50.5616306 L26.101562,50.0612739 C26.3032853,50.0236688 26.4463443,50.1385732 26.4947167,50.3412229 C26.5406448,50.5176274 26.4904391,50.6908328 26.3447891,50.7670672 L26.2765261,50.7935287 L24.3117818,51.2928408 C23.8218822,51.4244586 22.344979,52.0219618 22.3305702,52.0271847 C22.1854529,52.0877707 22.0166639,52.0470318 21.9116855,51.9248153 C21.8097946,51.8036433 21.7922982,51.6281529 21.8715466,51.4892229 L21.8990617,51.4405318 C22.0850558,51.1111191 23.1581334,49.2050616 23.4987131,48.4620127 C23.8496706,47.7015541 23.9309775,46.9254268 23.9320067,46.9170701 C23.9525907,46.7091975 24.1347592,46.5587771 24.3375118,46.5796688 Z M33.7027618,47.6044206 L33.7927797,47.6075414 C33.9975907,47.6190318 34.153,47.7966115 34.142708,48.0044841 C34.1293284,48.2113121 33.9543642,48.3711338 33.7485241,48.3596433 C33.6445748,48.3544204 32.7203525,48.3293503 32.5474467,49.1712866 C32.4898115,49.4543694 32.5217167,49.6768662 32.64625,49.8544459 C32.8479734,50.1458854 33.2709749,50.2743694 33.4912239,50.3036178 C33.8215973,50.348535 34.4586726,50.141707 34.5626219,50.0153121 C34.6768632,49.8492229 34.8250681,49.4303439 34.8940246,49.205758 C34.9557766,49.0072866 35.1605876,48.8944713 35.3561358,48.9550573 C35.5516839,49.0166879 35.6618084,49.2276943 35.6052024,49.4261656 C35.5825599,49.498242 35.3900994,50.1312611 35.1708796,50.4498599 C34.8682946,50.8896306 33.8823202,51.1173503 33.3934498,51.0515414 C32.953981,50.9909554 32.3663074,50.7611465 32.0400507,50.2910828 C31.7920133,49.9380127 31.7189401,49.5076433 31.8198017,49.0177325 C32.0411828,47.9394064 32.9986792,47.6310446 33.6051245,47.6060466 L33.7027618,47.6044206 Z M44.3626721,48.7419618 L46.7216004,49.0250446 L46.5435487,49.4188535 L45.9836634,49.3352866 L45.6615236,50.0518726 L46.0865835,50.4310573 L45.914707,50.8144204 L44.1732992,49.1597962 L44.3626721,48.7419618 Z M44.5798335,49.0981656 L44.5767459,49.1054777 L45.407311,49.8377325 L45.6574068,49.2820127 L44.5798335,49.0981656 Z M14.3933735,31.6055287 C15.0736752,31.6055287 16.2325553,31.8060892 17.8885394,32.7650191 C19.4210195,33.656051 23.2681721,36.2664713 25.4377275,38.0506242 C27.6710932,39.8859618 29.6646552,41.6419108 30.6393084,42.6321783 C31.8918458,43.9034395 32.5412715,44.596 32.4692275,45.2196178 C32.4017752,45.8087643 31.9931886,45.9858124 31.6020735,46.1155502 L31.5048663,46.1472102 L31.2671209,46.2286879 C30.7545789,46.4104459 30.6393084,46.5775796 30.6393084,46.6224968 C30.6393084,46.6757707 30.6825348,46.8481274 30.7113525,46.9713885 C30.8245645,47.4174268 30.9511563,47.924051 30.7092941,48.2812994 C30.3583366,48.8077707 29.7336117,48.7900127 29.319873,48.7774777 C29.1932813,48.7743439 29.0368427,48.7701656 28.9812659,48.7879236 C28.9184846,48.8077707 28.8063017,48.872535 28.6972065,48.9352102 C28.3246358,49.1472611 27.6988817,49.5024204 27.1863397,49.0814522 C26.8117106,48.7712102 26.7108489,48.3209936 26.7108489,47.9125605 C26.7108489,47.6427091 26.7551617,47.3938946 26.7913743,47.2193133 L26.8117106,47.1238981 L26.9619739,46.5096815 C27.0062295,46.3425478 27.0587188,46.1336306 27.0823904,45.998879 C26.9722659,45.950828 26.8096522,45.890242 26.6882065,45.8463694 C26.1231752,45.6353631 25.7691301,45.4932994 25.5982828,45.2739363 C25.3759754,44.9887643 25.312165,44.5876433 25.312165,44.2303949 C25.312165,44.1207134 25.3183402,44.0172994 25.327603,43.922242 C25.3574498,43.5963312 25.5077131,42.9403312 25.5282971,42.8661656 C25.5766696,42.6656051 25.7742761,42.5392102 25.9759995,42.5872611 C26.1458176,42.6290446 26.2600589,42.7836433 26.2600589,42.9539108 C26.2600589,42.9842038 26.2538837,43.0134522 26.2477085,43.0427006 C26.2065405,43.2296815 26.086124,43.7603312 26.0645108,43.9890955 C26.0593648,44.0695287 26.055248,44.1489172 26.055248,44.2241274 C26.055248,44.4842293 26.101562,44.6952357 26.1766936,44.7976051 C26.2724093,44.8874395 26.7087905,45.0503949 26.9434483,45.1381401 C27.4662823,45.3303439 27.6813852,45.4170446 27.7801885,45.6196943 C27.8213566,45.6990828 27.8378238,45.7899618 27.8378238,45.8923312 C27.8378238,46.0629469 27.7920815,46.2683822 27.7238255,46.5346307 L27.680356,46.7018854 L27.5372971,47.2837197 C27.4837787,47.5385987 27.4549611,47.7506497 27.4549611,47.9271847 C27.4549611,48.1998217 27.5208299,48.3847134 27.654626,48.4964841 C27.7740133,48.5936306 28.110562,48.4024713 28.3328694,48.277121 C28.4831327,48.1925096 28.6261916,48.1099873 28.7641045,48.0671592 C28.9380394,48.0128408 29.1325584,48.0191083 29.3383986,48.0243312 C29.7068525,48.0337325 29.9744447,48.027465 30.0958904,47.8551083 C30.1010364,47.8373503 30.1072116,47.8081019 30.1072116,47.772586 C30.1072116,47.6106752 30.0310507,47.3140127 29.9919411,47.1562803 C29.9415102,46.9494522 29.894167,46.770828 29.894167,46.6224968 C29.894167,46.1876276 30.2177624,45.8373143 30.8536201,45.5781295 L31.0190835,45.5152357 L31.2825589,45.4274904 C31.7158525,45.2864713 31.7189401,45.2603567 31.7302613,45.1329172 C31.7323197,45.1287389 31.7323197,45.1224713 31.7323197,45.118293 C31.7323197,44.8090955 30.7597249,43.8230064 30.1123576,43.1659618 C29.1552008,42.1924076 27.183252,40.4563057 24.9714995,38.6366369 C22.826645,36.8744204 19.0319816,34.2963822 17.5200856,33.4210191 C16.0081895,32.5435669 14.9841347,32.3586752 14.3933735,32.3586752 C14.3069206,32.3586752 14.2667818,32.3712102 14.2503145,32.3795669 C14.2492853,32.3889682 14.2461977,32.3952357 14.2461977,32.4088153 C14.2461977,32.4746242 14.267811,32.5957962 14.3460302,32.7691975 C14.4180743,32.9279745 14.8349006,33.2914904 15.1786537,33.5327898 C15.282603,33.6069554 15.3381798,33.723949 15.3381798,33.8440764 C15.3381798,33.918242 15.3175958,33.9924076 15.272311,34.057172 C15.1560113,34.2295287 14.9244411,34.2713121 14.7566814,34.1532739 C14.5508412,34.0101656 13.8643642,33.5056306 13.6719037,33.085707 C13.5278156,32.7681529 13.4032823,32.3168917 13.6245605,31.9659108 C13.7285097,31.8008662 13.9467003,31.6055287 14.3933735,31.6055287 Z M20.6519436,36.2716943 L21.6080712,36.9966369 L23.5069467,38.3995159 C23.6047208,38.4726369 23.6602976,38.5875414 23.6602976,38.7055796 C23.6602976,38.7536306 23.6510348,38.8048153 23.6294216,38.8518217 C23.5172387,39.123414 23.3247782,39.5997452 23.2897853,39.724051 C23.149814,40.0551847 23.2599385,40.2494777 23.4709247,40.392586 C23.667502,40.526293 23.8506998,40.6411975 23.8506998,40.6411975 C24.0658028,40.7874395 24.1090292,41.0475414 24.1090292,41.4006115 L24.1069708,41.5663089 L24.1069708,41.5663089 L24.1018248,41.7453248 L24.0966788,42.2373248 C24.1090292,42.4483312 24.15946,42.7627516 24.2047449,43.0416561 C24.2623801,43.399949 24.2922269,43.5879745 24.2922269,43.7164586 C24.2922269,43.7571975 24.2911977,43.7916688 24.2839933,43.8230064 C24.2592925,43.9713376 24.1728397,44.0966879 23.872313,44.5061656 C23.6304508,44.8386921 23.3142575,45.2720502 23.0905016,45.6792937 L22.9686747,45.9194904 L22.6918197,46.5556433 C22.4231983,47.1803057 22.2482341,47.5939618 21.9456491,47.7788535 C21.7418673,47.9029503 21.3338407,47.9940487 20.6983102,48.1153533 L20.4780087,48.1569936 L19.7843274,48.2959236 C19.4508663,48.3721783 18.9743463,48.5696051 18.593542,48.7294268 C18.280665,48.86 18.0995256,48.9352102 17.9770507,48.9623694 C17.7506265,49.0125096 17.4727423,48.9268535 16.9581419,48.7576306 C16.6864329,48.6677962 16.374585,48.5664713 16.1327228,48.5205096 C15.3742018,48.380535 15.2187925,47.9804586 15.2187925,47.5417325 C15.2187925,47.4863694 15.2208509,47.4310064 15.2270261,47.3745987 C15.2259969,47.371465 15.2043837,47.1615032 14.5415784,46.7133758 C14.4314539,46.6381656 13.4423919,45.9456051 13.366231,45.0430828 C13.3631434,45.0065223 13.361085,44.9689172 13.361085,44.9334013 C13.361085,44.3655263 13.7353399,43.8831175 14.0546937,43.5105041 L14.1484237,43.4020382 L14.3470594,43.1670064 C14.3686726,43.1398471 14.375877,43.1095541 14.375877,43.0813503 C14.375877,42.9779363 14.2770738,42.8724331 14.2647234,42.8567643 C14.1978253,42.7857325 14.1597449,42.6906752 14.1597449,42.5945732 C14.1597449,42.5402548 14.1710661,42.4869809 14.1937085,42.4368408 C14.2485992,42.3193248 14.3542352,42.2380793 14.4766673,42.2203068 L14.5518704,42.2174777 L15.8661598,42.3010446 C16.0709708,42.3135796 16.2263801,42.4932484 16.2150589,42.701121 C16.2006501,42.9089936 16.025686,43.0656815 15.820875,43.0531465 C15.820875,43.0531465 15.4637423,43.0312102 15.1117556,43.0092739 C15.113814,43.0374777 15.1230768,43.0635924 15.1230768,43.0938854 C15.1230768,43.233442 15.088825,43.3796841 15.0045129,43.5240542 L14.9316455,43.6318471 L14.7062505,43.9013503 C14.4683908,44.1761925 14.1784865,44.5096347 14.1169999,44.8195084 L14.1051972,44.9344459 L14.1051972,44.9762293 C14.1412193,45.3909299 14.6465569,45.8766624 14.9542879,46.0855796 C15.6448817,46.5535541 15.9690799,46.9640764 15.9690799,47.371465 C15.9690799,47.3902675 15.9690799,47.4080255 15.9680507,47.426828 C15.9618755,47.4863694 15.9608463,47.5333758 15.9608463,47.5720255 C15.9608463,47.7214013 16.010248,47.7318471 16.2654898,47.7788535 C16.5577828,47.8342166 16.8922731,47.9438981 17.1876537,48.04 C17.4037859,48.1099873 17.7269549,48.2175796 17.8309042,48.221758 C17.9091235,48.1987771 18.1283432,48.1078981 18.3105118,48.0316433 C18.6357392,47.8954293 19.0255182,47.7331424 19.3712967,47.6271462 L19.6206844,47.5594904 L20.3421542,47.4153376 C20.7456009,47.3390828 21.4238443,47.2126879 21.5627864,47.1312102 C21.6551857,47.0662137 21.8158935,46.7065666 21.9560004,46.3772742 L22.0074011,46.2558471 L22.2945482,45.6019363 C22.5436148,45.0608408 22.9666163,44.480051 23.2753765,44.0580382 C23.3772674,43.9191083 23.4935671,43.7561529 23.5460564,43.6746752 C23.5357643,43.569172 23.5018007,43.3424968 23.4729831,43.1649172 C23.4367038,42.9424204 23.395793,42.6975955 23.3723948,42.4833248 L23.3556542,42.2811975 L23.3577126,41.717121 C23.3608002,41.6241529 23.364917,41.5040255 23.364917,41.3985223 C23.364917,41.3212229 23.3402162,41.1802038 23.2506757,41.1384204 C23.1209964,41.0517197 22.8667838,40.8835414 22.8667838,40.8835414 C22.585812,40.6673121 22.4437823,40.3309554 22.4551035,40.0854777 C22.4633371,39.8692484 22.5364103,39.6561529 22.5744908,39.5182675 C22.6125712,39.3835159 22.7360753,39.0711847 22.831791,38.8340637 C22.5786076,38.6460382 22.0516568,38.2564076 21.4989759,37.8490191 C21.555582,38.6408153 21.632772,39.7334522 21.632772,39.7334522 C21.6338012,39.7418089 21.6338012,39.7522548 21.6338012,39.7595669 C21.6338012,39.8410446 21.607042,39.9214777 21.5586696,39.9883312 C21.3312162,40.2923057 20.9380615,40.8344459 20.8495502,40.9994904 C20.6098608,41.4331097 20.2546975,41.7288952 19.8093599,41.8648375 L19.6381808,41.9082803 L18.4226947,42.1328662 C18.2230297,42.1412229 18.0182187,42.0284076 17.9811675,41.8247134 C17.9496482,41.6437389 18.0883331,41.4643639 18.2365721,41.4062526 L18.3002198,41.389121 L19.4940927,41.1687134 C19.8049114,41.103949 20.0364816,40.9295032 20.1990953,40.6328408 C20.3164242,40.4166115 20.7054621,39.8838726 20.8814554,39.6467516 C20.863959,39.3929172 20.6519436,36.2716943 20.6519436,36.2716943 Z M45.6923996,44.7923822 L47.8640133,45.428535 L47.749772,45.8317452 L45.940437,45.3010955 L45.9373494,45.3084076 L47.5758371,46.4449172 L47.4873258,46.7614268 L45.510231,46.8105223 L45.5081726,46.818879 L47.3195661,47.3484841 L47.2053248,47.7516943 L45.0337111,47.1144968 L45.2199964,46.4532739 L46.9850758,46.4261146 L46.9871342,46.4188025 L45.510231,45.4348025 L45.6923996,44.7923822 Z M24.8799006,15.7831847 C37.9641306,15.7831847 48.6091547,26.5852484 48.6091547,39.8661146 C48.6091547,41.0829081 48.518417,42.3020039 48.3395341,43.4970895 L48.2427592,44.0925096 L48.0564739,44.0580382 C48.2962777,42.6854522 48.4177234,41.2752611 48.4177234,39.8661146 C48.4177234,26.8245735 38.068259,16.1889594 25.2685136,15.9775512 L24.8799006,15.9743439 L24.8799006,15.7831847 Z M24.8799006,16.4976815 C37.5750927,16.4976815 47.9010645,26.9811465 47.9010645,39.8661146 C47.9010645,41.0470937 47.8148637,42.2303751 47.641814,43.3903041 L47.5480487,43.9682038 L46.68352,43.8125605 C46.9078858,42.5193631 47.0231562,41.1927389 47.0231562,39.8661146 C47.0231562,27.5970762 37.2869935,17.5926805 25.2454926,17.3938195 L24.8799006,17.3908025 L24.8799006,16.4976815 Z M24.8799006,17.9475669 C36.7867249,17.9475669 46.4725338,27.7802548 46.4725338,39.8661146 C46.4725338,40.9411677 46.3960585,42.0191224 46.2431078,43.0770075 L46.1421603,43.7091465 L45.9569042,43.6757197 C46.1730364,42.4263949 46.2841901,41.1467771 46.2841901,39.8661146 C46.2841901,28.0065957 36.8738438,18.3359584 25.233319,18.1437316 L24.8799006,18.1408153 L24.8799006,17.9475669 Z M17.122814,33.9422675 C17.1927997,34.0153885 17.2288217,34.1104459 17.2288217,34.2044586 C17.2288217,34.3047389 17.1886829,34.4018854 17.1135512,34.476051 C16.8521342,34.7319745 16.6020384,35.0181911 16.4847095,35.1821911 C16.5217608,35.1996008 16.567503,35.2184034 16.6191918,35.2314801 L16.7008417,35.2459108 L16.861397,35.2542675 C17.407674,35.2809045 18.3964373,35.327108 18.5046139,35.9736659 L18.5142935,36.0941146 L18.5225272,36.3897325 C18.526644,36.4910573 18.5328192,36.5996943 18.5328192,36.7104204 C18.5328192,37.1355669 18.4597459,37.5763822 18.0182188,37.6589045 C17.783561,37.7027771 17.4933263,37.6098089 17.1876537,37.513707 C17.097084,37.4844586 16.9684339,37.4447643 16.866543,37.4186497 C16.8469882,37.5345987 16.8294918,37.6975541 16.8140538,37.8406624 C16.7770026,38.1958217 16.7327469,38.6387261 16.6133596,39.1275924 C16.579396,39.2759236 16.563958,39.4336561 16.563958,39.5872102 C16.563958,39.9818316 16.6566623,40.3541684 16.7206337,40.4936644 L16.7430389,40.5346497 L16.7811194,40.5837452 C16.9262367,40.7801274 17.10223,41.0141146 17.10223,41.2627261 C17.10223,41.3243567 17.091938,41.3870318 17.066208,41.4507516 C17.0326855,41.5358107 16.9500133,41.6761263 16.7514346,41.7434245 L16.6421773,41.7703949 L16.6452649,41.7703949 L16.620564,41.7787516 C16.3776726,41.8654522 16.0936132,41.9072357 14.6053888,41.661758 C14.4026363,41.626242 14.2667818,41.431949 14.2997162,41.2282548 C14.3336798,41.0224713 14.524082,40.8835414 14.7258053,40.9159236 C15.6757577,41.0747006 16.051416,41.0966369 16.2243217,41.0893248 C16.2119713,41.0715669 16.1481609,40.9869554 16.1481609,40.9869554 C15.9639339,40.7372994 15.8249918,40.155465 15.8249918,39.585121 C15.8249918,39.3647134 15.8455758,39.1453503 15.8918899,38.9489682 C15.9968683,38.510242 16.0400948,38.096586 16.0750876,37.7623185 C16.1316936,37.2149554 16.1687449,36.8535287 16.4723591,36.7020637 C16.7183381,36.5756688 17.0240108,36.6707261 17.4089319,36.7929427 C17.5159688,36.8263694 17.6713781,36.8775541 17.783561,36.9015796 C17.7876778,36.8545732 17.788707,36.8002548 17.788707,36.741758 C17.788707,36.6310318 17.783561,36.5129936 17.7815026,36.4242038 C17.7815026,36.4242038 17.7742982,36.2340892 17.7722398,36.1536561 C17.691775,36.1042756 17.486275,36.0488521 16.9863974,36.0172085 L16.8274334,36.0084586 L16.6267392,35.9959236 C16.1738909,35.9510064 15.6901665,35.6585223 15.6901665,35.2041274 C15.6901665,35.0902675 15.6901665,34.8218089 16.5989508,33.9328662 C16.7461265,33.7887134 16.9807843,33.7918471 17.122814,33.9422675 Z M35.7750205,24.4710064 C39.3607561,25.5364841 41.3018289,28.2806115 41.3018289,32.447465 C41.3018289,37.8385732 38.0114739,41.6043057 33.3008217,41.6043057 C29.0219079,41.6043057 27.4951492,38.0659974 26.5933406,35.8405483 L26.5327971,35.6909045 L26.2477085,35.0004331 C26.0377515,34.5220127 25.7547213,34.2201274 25.3821506,34.0770191 C24.615396,33.784535 23.6222172,34.2504204 23.2486173,34.4259108 C23.062332,34.5126115 22.842083,34.4300892 22.7556301,34.2420637 C22.6702065,34.051949 22.7515133,33.8294522 22.9377987,33.7427516 C23.3896178,33.5307006 24.5865784,32.9687134 25.6425384,33.3729682 C26.1464351,33.5656943 26.5461253,33.9454117 26.8326054,34.502221 L26.9238934,34.6943694 L27.2192741,35.4046879 C28.095124,37.574293 29.4207346,40.8501146 33.3008217,40.8501146 C37.5761219,40.8501146 40.5587459,37.3956688 40.5587459,32.447465 C40.5587459,28.9961529 39.1631496,26.659414 36.4934027,25.5218599 C36.4759063,26.4139363 36.438855,28.1625732 36.4347382,28.4299873 C36.7517321,28.6681529 37.4546762,29.2322293 37.9003202,29.8913631 C38.4921107,30.7604586 38.6259068,31.7475924 38.6331112,31.7893758 C38.6361988,31.8071338 38.6361988,31.8238471 38.6361988,31.8405605 C38.6361988,32.0264968 38.5013735,32.1873631 38.3161173,32.2145223 C38.1102772,32.2427261 37.925021,32.0975287 37.8962034,31.8917452 C37.8951742,31.8823439 37.7737285,31.0351847 37.2910333,30.3185987 C36.7929001,29.5852994 35.859415,28.9407898 35.8522106,28.9345223 C35.7690511,28.8768611 35.7128979,28.7877789 35.69429,28.6892034 L35.6875384,28.6138344 L35.7750205,24.4710064 Z M15.09323,35.7379108 C15.2157049,35.8058089 15.2836322,35.9332484 15.2836322,36.0659108 C15.2836322,36.1296306 15.2681942,36.1912611 15.2373181,36.249758 C15.2105589,36.2978089 14.5950968,37.4092484 14.3419134,37.7800764 C14.1597449,38.0474904 13.7285097,38.9667261 13.5535456,39.4117197 C13.8345174,39.494242 14.3429426,39.5976561 14.7762362,39.6655541 C14.9350272,39.6897288 15.0544985,39.8113698 15.0853925,39.9607487 L15.09323,40.0374268 L15.0891132,40.0959236 C15.0582372,40.3006624 14.867835,40.4427261 14.6650825,40.4103439 C12.8722147,40.1335287 12.7353309,39.8964076 12.7353309,39.5934777 C12.7353309,39.2383185 13.5370784,37.6359236 13.7305681,37.3517962 C13.9641967,37.009172 14.5817172,35.8925096 14.5889216,35.8810191 C14.6887541,35.7003057 14.9151783,35.6344968 15.09323,35.7379108 Z M6.6548125,31.4613758 L6.20196414,33.1076433 L4.9020835,33.1912102 L4.32058504,35.3075414 L5.38374949,36.085758 L4.96383555,37.6129427 L-2.66453526e-15,33.9015287 L0.506366803,32.0599236 L6.6548125,31.4613758 Z M3.75349539,33.249707 L1.39868391,33.3061146 L1.39456711,33.3217834 L3.36651588,34.6619873 L3.75349539,33.249707 Z M29.6949714,25.5187164 L30.0351675,25.529172 C31.3618074,25.6043822 31.8897874,25.7861401 32.4856947,26.033707 C33.0496967,26.2697834 33.8637946,26.7690955 33.8977582,26.7899873 C34.0747807,26.8986242 34.1293284,27.1294777 34.0243499,27.3070573 C33.9162838,27.4867261 33.6898596,27.5431338 33.5128371,27.4344968 C33.5046035,27.4303185 32.7131481,26.944586 32.200606,26.732535 C31.7189401,26.5309299 31.2959385,26.3575287 29.9939995,26.2823185 C28.7538125,26.2112866 27.7194657,26.543465 26.7695133,26.8902675 C25.9296855,27.1952866 24.7769805,27.777121 23.4369611,28.5699618 C22.2276501,29.2865478 20.797061,30.0490955 19.9562039,30.4251465 C19.2141501,30.7573248 17.542728,31.3631847 17.0415072,31.3579953 C16.8346378,31.3558726 16.6699657,31.1845605 16.6740069,30.9756433 C16.6751117,30.7677707 16.8439006,30.6016815 17.0487116,30.6027261 C17.3111578,30.6069045 18.7273381,30.1504204 19.6567065,29.7346752 C20.4749211,29.3690701 21.8756634,28.6221911 23.0613028,27.9191847 C24.0236055,27.3498854 25.404793,26.586293 26.5204467,26.179949 C27.3352307,25.8831125 28.2750912,25.5746695 29.3638522,25.5254385 L29.6949714,25.5187164 Z M4.32264344,24.588 L8.81510502,27.7102675 C9.82886783,28.4320764 10.2477526,29.4118981 9.47482275,30.5578089 C9.31323822,30.7970191 9.10225205,31.1114395 9.10225205,31.1114395 L7.80957582,31.2900637 C7.98453996,31.0299618 8.1605333,30.4836433 8.20787654,30.1995159 C8.2830082,29.7440764 8.32520543,29.2656561 7.55536322,28.7162038 L3.44164754,25.8655287 L4.32264344,24.588 Z M10.5966516,18.4583694 L15.7755902,21.8772994 L14.4108699,22.8790573 L13.3415302,22.1227771 L11.587772,23.4107516 L11.9418171,24.691414 L10.6769293,25.620051 L9.07240523,19.5792102 L10.5966516,18.4583694 Z M10.5297536,19.996 L10.516374,20.0064459 L11.2368145,22.3024459 L12.4080451,21.4427516 L10.5297536,19.996 Z M21.3137198,14.2089936 L20.3287746,17.311414 L22.8461998,19.8508025 L21.0656824,20.293707 L19.4776255,18.4709045 L18.9095067,20.8295796 L17.2154421,21.2515924 L18.3074242,17.8128153 L16.0370072,15.519949 L17.7773858,15.0874904 L19.1678361,16.7264459 L19.6793489,14.614293 L21.3137198,14.2089936 Z M4.41630072,5.27047134 L6.6589293,7.49648408 L9.49540676,6.13538854 L8.10289805,8.98919745 L10.2559862,11.3060892 L7.1508873,10.8433376 L5.64310809,13.6376051 L5.11821568,10.4975796 L2.03575922,9.90738854 L4.81460143,8.43034395 L4.41630072,5.27047134 Z M45.0213607,5.0270828 L44.6220307,8.18591083 L47.3998438,9.66504459 L44.3153289,10.2541911 L43.7873489,13.3942166 L42.2836865,10.5989045 L39.1775584,11.0595669 L41.3306465,8.74371975 L39.9412254,5.88991083 L42.7777029,7.25205096 L45.0213607,5.0270828 Z M24.656564,0.203184713 L25.6878233,3.21159236 L28.8237982,3.27635669 L26.3228402,5.20048408 L27.2336829,8.24963057 L24.656564,6.43100637 L22.0804744,8.24963057 L22.9902879,5.20048408 L20.4893299,3.27635669 L23.626334,3.21159236 L24.656564,0.203184713 Z" id="🎨-Color"></path>
            </g>
            <path d="M199.388314,14.217632 L199.388314,18.7781777 L202.965082,18.7781777 L202.965082,21.2407451 L199.388314,21.2407451 L199.388314,30.8331107 C199.388314,32.8655119 199.87369,33.1933974 201.034588,33.1933974 C201.611535,33.1933974 202.178974,33.1439699 202.820971,33.0392423 L203.060656,33.0005811 L203.060656,35.6833702 L202.895528,35.71518 C202.351107,35.8213758 201.303296,36 200.396094,36 C197.323717,36 196.071247,34.602816 196.071247,31.1771459 L196.071247,21.2407451 L193.357647,21.2407451 L193.357647,18.7781777 L196.071247,18.7781777 L196.071247,14.217632 L199.388314,14.217632 Z M95.7457581,12.0008319 L95.7457581,27.7104656 C95.7457581,33.5018056 93.1032131,35.9996085 86.9964873,35.9996085 C80.8902619,35.9996085 78.3187719,33.4675489 78.3187719,27.537714 L78.3187719,26.7742789 L84.5686085,26.7742789 L84.5686085,27.537714 C84.5686085,29.826551 85.2466332,30.7632271 86.8889041,30.7632271 C88.5677032,30.7632271 89.1741726,29.7913155 89.1741726,27.4677324 L89.1741726,12.0008319 L95.7457581,12.0008319 Z M326.562181,18.4027732 C331.862783,18.4027732 335.182852,22.4318506 334.992204,28.3656006 L322.313893,28.3656006 C322.538066,31.2397378 324.581648,32.6447519 326.657254,32.6447519 C327.998292,32.6447519 329.371855,32.1764139 330.266547,30.7087589 L334.800556,30.7087589 C333.87484,33.2065618 331.351887,35.9862484 326.689279,35.9862484 C321.164503,35.9862484 317.939007,31.9576603 317.939007,27.1171885 C317.939007,22.1191358 321.483751,18.4027732 326.562181,18.4027732 Z M165.86272,18.4965386 C169.981907,18.4965386 173.654249,21.1201126 173.654249,27.2412956 C173.654249,33.3624787 169.981907,35.986542 165.86272,35.986542 C161.743032,35.986542 158.102714,33.3624787 158.102714,27.2412956 C158.102714,21.1201126 161.743032,18.4965386 165.86272,18.4965386 Z M264.332373,18.7774925 L264.332373,28.4599044 C264.332373,30.7081227 264.65212,32.5198128 267.142547,32.5198128 C270.048796,32.5198128 270.719816,30.1771438 270.719816,27.5227389 L270.719816,18.7774925 L275.125225,18.7774925 L275.125225,35.5804044 L270.719816,35.5804044 L270.719816,33.363017 C269.73005,35.0494255 267.813567,35.9865909 265.705936,35.9865909 C261.586248,35.9865909 259.924962,33.5186403 259.924962,29.3965804 L259.924962,18.7774925 L264.332373,18.7774925 Z M294.858896,18.7774925 L294.858896,28.4599044 C294.858896,30.7081227 295.178644,32.5198128 297.669071,32.5198128 C300.57532,32.5198128 301.246339,30.1771438 301.246339,27.5227389 L301.246339,18.7774925 L305.652249,18.7774925 L305.652249,35.5804044 L301.246339,35.5804044 L301.246339,33.363017 C300.256573,35.0494255 298.34009,35.9865909 296.232459,35.9865909 C292.112771,35.9865909 290.451486,33.5186403 290.451486,29.3965804 L290.451486,18.7774925 L294.858896,18.7774925 Z M229.7364,18.4650714 C235.037502,18.4650714 238.134899,22.712413 237.783127,28.1783143 L224.690995,28.1783143 C225.009242,31.2702262 227.021299,33.2067086 229.704875,33.2067086 C232.099228,33.2067086 233.504316,32.2387121 234.206859,30.6457755 L237.559954,30.6457755 C236.761336,33.4254621 234.206859,35.9859058 229.831974,35.9859058 C224.275173,35.9859058 221.27335,32.020448 221.27335,27.147677 C221.27335,21.9318496 224.850118,18.4650714 229.7364,18.4650714 Z M284.415815,14.218415 L284.415815,18.7770032 L288.31183,18.7770032 L288.31183,21.7446122 L284.415815,21.7446122 L284.415815,30.3958974 C284.415815,32.1136262 284.831136,32.589305 286.268248,32.5819643 C286.902739,32.579028 287.530725,32.5203022 288.237772,32.4048082 L288.515988,32.3592957 L288.515988,35.6151504 L288.323839,35.6528328 C287.702358,35.7746888 286.517941,35.9880591 285.476135,35.9851528 C281.525078,35.9758246 280.009405,34.2130726 280.009405,30.6141615 L280.009405,21.7446122 L277.262779,21.7446122 L277.262779,18.7770032 L280.009405,18.7770032 L280.009405,14.218415 L284.415815,14.218415 Z M110.422616,12.0008319 L118.06453,35.5831449 L111.172697,35.5831449 L109.994785,31.3871884 L103.494755,31.3871884 L102.316843,35.5831449 L95.7457581,35.5831449 L103.387672,12.0008319 L110.422616,12.0008319 Z M126.802292,12.0008319 L130.054809,17.9541572 L133.409905,12.0008319 L140.266211,12.0008319 L133.524494,23.5815544 L140.479877,35.5831449 L132.945546,35.5831449 L129.48787,29.2740393 L125.910101,35.5831449 L119.053796,35.5831449 L125.99867,23.5766606 L119.268462,12.0008319 L126.802292,12.0008319 Z M70.6763576,12.0008319 L78.3187719,35.5831449 L71.4264381,35.5831449 L70.2485265,31.3871884 L63.7499975,31.3871884 L62.5715856,35.5831449 L56,35.5831449 L63.6419139,12.0008319 L70.6763576,12.0008319 Z M208.422405,12.9373612 L208.422405,21.2137802 C209.412672,19.5586921 211.137006,18.465414 213.819082,18.465414 C217.971295,18.465414 219.568031,21.0884985 219.568031,24.9927837 L219.568031,35.5810405 L216.24646,35.5810405 L216.24646,25.8673083 C216.24646,23.4306781 215.831139,21.1829491 212.701217,21.1829491 C209.827493,21.1829491 208.422405,23.212414 208.422405,26.5539105 L208.422405,35.5810405 L205.100835,35.5810405 L205.100835,12.9373612 L208.422405,12.9373612 Z M183.091853,18.4816125 C183.251476,18.4816125 183.474649,18.4816125 183.665797,18.5139117 L183.665797,20.5742076 C183.34705,20.5433765 183.058827,20.5433765 182.772606,20.5433765 C179.227863,20.5433765 178.077472,23.0416688 178.077472,26.6019188 L178.077472,35.5806001 L176.130466,35.5806001 L176.130466,18.7776883 L178.012922,18.7776883 L178.012922,21.6674857 C178.780516,19.7001723 181.015246,18.4816125 183.091853,18.4816125 Z M312.131413,18.7774436 L312.131413,21.7132429 C313.121179,19.6524576 314.685389,18.808764 316.665922,18.808764 C316.953645,18.808764 317.336941,18.8405738 317.623663,18.8714048 L317.623663,22.9313133 C316.984669,22.8681831 316.442249,22.8378414 315.804255,22.8378414 C313.632074,22.8378414 312.195463,23.6184048 312.195463,26.7729576 L312.195463,35.5803554 L307.788052,35.5803554 L307.788052,18.7774436 L312.131413,18.7774436 Z M255.58095,12 C256.539192,12 257.082112,12.0626408 258.135427,12.1566021 L258.135427,15.6233802 C257.401359,15.529419 256.66679,15.4985879 256.154894,15.4985879 C255.069554,15.4985879 254.335987,15.8416443 254.335987,17.5906936 L254.335987,18.7769542 L257.784155,18.7769542 L257.784155,21.7450527 L254.335987,21.7450527 L254.335987,35.5803554 L249.928576,35.5803554 L249.928576,21.7450527 L247.500697,21.7450527 L247.500697,18.7769542 L249.928576,18.7769542 L249.928576,17.3724295 C249.928576,13.7182182 251.812534,12 255.58095,12 Z M156.225762,12.9768543 C156.709136,12.9768543 157.47723,13.0443889 158.009142,13.1750538 L158.292862,13.2440566 L158.292862,15.1399203 L157.815993,15.0063191 C157.419185,14.8957189 156.720645,14.8017577 156.290312,14.8017577 C155.072369,14.8017577 154.492421,15.0929397 154.492421,16.7475383 L154.492421,18.7770032 L158.037164,18.7770032 L158.037164,20.4731992 L154.492421,20.4731992 L154.492421,35.5804044 L152.498878,35.5804044 L152.498878,20.4731992 L149.975925,20.4731992 L149.975925,18.7770032 L152.498878,18.7770032 L152.498878,16.8718412 C152.498878,14.2874178 153.752348,12.9768543 156.225762,12.9768543 Z M165.86272,20.2769083 C162.573174,20.2769083 160.209845,22.4316548 160.209845,27.2412956 C160.209845,32.0509365 162.573174,34.2061723 165.86272,34.2061723 C169.151765,34.2061723 171.546618,32.0509365 171.546618,27.2412956 C171.546618,22.4316548 169.151765,20.2769083 165.86272,20.2769083 Z M106.74477,18.7978508 L104.78075,26.4620536 L108.708289,26.4620536 L106.74477,18.7978508 Z M66.9985114,18.7978508 L65.0349919,26.4620536 L68.9630317,26.4620536 L66.9985114,18.7978508 Z M229.704875,21.1199657 C227.117373,21.1199657 225.20139,22.4319974 224.754544,25.6173812 L234.334958,25.6173812 C234.238884,23.1190889 232.4505,21.1199657 229.704875,21.1199657 Z M326.529155,21.5573259 C324.86887,21.5573259 322.729214,22.5879633 322.377442,25.3984809 L330.521244,25.3984809 C330.42567,22.5561535 328.381589,21.5573259 326.529155,21.5573259 Z" id="Combined-Shape"></path>
        </g>
    </g>
</svg>