<?xml version="1.0" encoding="UTF-8"?>
<svg width="415px" height="391px" viewBox="0 0 415 391" version="1.1" xmlns="http://www.w3.org/2000/svg" xmlns:xlink="http://www.w3.org/1999/xlink">
    <!-- Generator: Sketch 52.3 (67297) - http://www.bohemiancoding.com/sketch -->
    <title>A4</title>
    <desc>Created with Sketch.</desc>
    <g id="A4" stroke="none" stroke-width="1" fill="none" fill-rule="evenodd">
        <rect fill="#FFFFFF" x="0" y="0" width="415" height="391"></rect>
        <g id="Group" transform="translate(4.000000, 11.000000)">
            <rect id="Rectangle" fill="#FF0000" x="255" y="18" width="48" height="38"></rect>
            <rect id="Rectangle" fill="#FF0000" x="124" y="39" width="48" height="38"></rect>
            <rect id="Rectangle" fill="#FF0000" x="238" y="35" width="48" height="38"></rect>
            <rect id="Rectangle" fill="#FF0000" x="107" y="16" width="48" height="38"></rect>
            <rect id="Rectangle" fill="#FF0000" x="107" y="54" width="196" height="305"></rect>
            <g id="tshirt" fill="#000000" fill-rule="nonzero">
                <path d="M405.5,99.021 C405.406,98.922 405.309,98.825 405.21,98.731 L321.05,23.931 C320.282,23.231 319.386,22.688 318.41,22.331 L257.53,0.571 C253.377,-0.937 248.788,1.208 247.28,5.361 C247.008,6.11 246.85,6.895 246.81,7.691 C246.81,9.451 244.17,50.011 203.61,50.651 C162.81,50.011 160.25,9.451 160.17,7.691 C159.934,3.279 156.166,-0.106 151.754,0.13 C150.996,0.171 150.247,0.319 149.53,0.571 L88.73,22.571 C87.754,22.928 86.858,23.471 86.09,24.171 L2.49,98.731 C-0.713,101.774 -0.843,106.838 2.2,110.041 C2.294,110.14 2.391,110.237 2.49,110.331 L69.05,177.611 L69.05,361.611 C69.05,366.029 72.632,369.611 77.05,369.611 L330.65,369.611 C335.068,369.611 338.65,366.029 338.65,361.611 L338.65,177.611 L405.21,110.331 C408.413,107.288 408.543,102.225 405.5,99.021 Z M338.41,154.811 L338.41,117.691 C338.41,113.273 334.828,109.691 330.41,109.691 C325.992,109.691 322.41,113.273 322.41,117.691 L322.41,353.211 L84.73,353.211 L84.73,117.691 C84.73,113.273 81.148,109.691 76.73,109.691 C72.312,109.691 68.73,113.273 68.73,117.691 L68.73,154.891 L19.53,105.051 L95.69,36.891 L145.77,18.811 C151.974,50.777 182.917,71.662 214.883,65.458 C238.49,60.876 256.948,42.418 261.53,18.811 L311.61,36.891 L387.53,105.051 L338.41,154.811 Z" id="Shape"></path>
            </g>
        </g>
    </g>
</svg>