<svg xmlns="http://www.w3.org/2000/svg" width="24" height="24" viewBox="0 0 24 24">
    <path fill="#181314" d="M19.953 7.983C20.213 13.665 15.909 20 8.29 20c-2.317 0-4.474-.668-6.29-1.815 2.178.252 4.35-.342 6.075-1.672-1.796-.034-3.311-1.202-3.832-2.806.643.12 1.276.085 1.852-.07-1.974-.39-3.335-2.14-3.291-4.01.552.302 1.186.484 1.857.505-1.826-1.202-2.343-3.577-1.27-5.394C5.415 7.182 8.44 8.791 11.85 8.96 11.25 6.433 13.197 4 15.846 4c1.18 0 2.247.49 2.995 1.276.935-.18 1.814-.517 2.607-.98-.307.944-.958 1.736-1.804 2.235.83-.098 1.621-.315 2.356-.636-.55.807-1.246 1.519-2.047 2.088z"/>
</svg>
