<svg xmlns="http://www.w3.org/2000/svg" width="72" height="24" viewBox="0 0 72 24">
    <path fill-rule="evenodd" d="M7.957 4.374l.09.001.091.004.038.001c.06.003.12.008.18.013l.028.003c.056.005.112.01.168.017l.024.002.088.01.087.012.044.005.16.021.075.01.073.01.033.004c.048.007.094.012.137.016l.026.003c.044.005.086.008.124.01.182.01.363.016.543.021l.104.004c.174.004.345.007.514.007h.13c.081 0 .162-.002.241-.003l.147-.004.23-.008.14-.007.24-.015.115-.009c.114-.01.128-.01.238-.023l.085-.01h.017l.088-.012.067-.008c.045-.006.09-.01.136-.015l.025-.003c.044-.004.088-.008.132-.01l.011-.002.138-.004h.034l.069.002h.02l.018.002.083.007.025.002.054.008.054.01.027.005c.027.006.054.012.082.02l.039.011.035.011.036.012.042.016.07.03.042.02.038.018.038.02.037.021c.037.022.075.046.112.073.494.347.702.88.9 1.355l.47 1.12.475 1.134 1.197 2.755c.24.223.622.49 1.012.732.468.29.969.502 1.332.636.324-.376.803-.297.89-.269.107.033.393.158.555.161.16.003.674-.355.76-.328.084.026.148.064.214.19.066.128.115.426-.15.605-.235.159-.427.116-.467.105l-.008-.002-.226-.088.015.009c.022.013.056.04.097.088l.042.056c.116.184.06.167.18.4.122.232.45.427.682.985.432 1.036-.12 1.578-.512 1.806.039-.062.213-.38.084-.958-.134-.6-.527-.87-.587-.908l-.007-.004.007.009c.055.07.39.503.48.918.092.418.026.881.015.947-.156.09-.285.129-.314.129-.393 0-.259-.736-.484-1.101-.226-.366-.924-.567-1.318-1.238-.24-.41-.267-.661-.231-.862-.278-.086-.725-.213-1.182-.39l-.196-.08.08.182c-.004 0 1.458 3.383 1.813 4.207l.043.099c.118.273.138.52.089.675l-.02.054c.489.082 1.18.285 1.326.78.28.92-1.128 1.406-1.275 1.469.215-.001.781-.137 1.102-.33.322-.192.532-.512 1.142-.876.884-.548 2.065-.086 2.176.083.028.043.047.101.054.17l.003.074v.029l-.002.006-.002.034-.006.045-.003.014-.004.015-.01.038c-.052.18-.179.406-.43.675-.52.56-1.585.907-1.585.907s-.917.302-1.763.335h-.047l-.038.002h-.038l-.114-.001c-.043-.002-.087-.003-.13-.006-.298-.022-.538-.068-.727-.12-.181-.057-.336-.118-.464-.183-.068-.037-.1-.063-.1-.063s-.186-.111-.32-.278c-.1-.125-.172-.282-.113-.447.137-.386 1.137-.403 1.493-.593.357-.189.724-.538.567-.87-.095-.2-.752-.314-1.26-.372-.285.163-.641.302-.641.302-.42.135-.738.23-1.094.364 0 0-.712.267-1.186.625s-1.657 1.823-3.139 2.426c-.053.02-.12.042-.182.053-.058.06-.139.134-.256.223-.547.416-1.162.664-1.162.664s.41.079 1.006-.06c.595-.138.781-.435 1.933-.495 1.712-.06 1.842.916 1.837.937-.01.036-.032.07-.069.098-.016.012-.035.025-.059.038l-.001.001-.02.01c-.07.031-.167.06-.3.084-.494.138-1.823.231-2.68.227-.128 0-.246-.004-.348-.009-.791-.04-2.813-.208-2.813-.584s.342-.168 1.172-.495c.571-.225.997-.641 1.197-.891-.217-.137-.38-.268-.512-.732-.119-.413-.3-1.05-.464-1.544-.645-.876-1.429-1.74-1.733-2.078-.675-.751-1.372-1.474-2.079-2.14-1.1-1.038-2.184-1.876-3.342-2.703-.483-.345.03-.85.576-1.238-.093-.092-.349-.292-.442-.382-.452-.475-.261-.817.214-1.129-.017-.023-.089-.142-.104-.164-.177.1-.428.163-.84.14-.877-.048-1.45-.695-1.933-.733-.484-.039-1.135.52-1.351.096-.092-.178-.061-.394-.06-.47.026-.57.341-1.445 1.536-1.538.677-.067 1.047.184 1.342.184.296 0 .248-.052.492-.03.145.02.217.067.236.083l.006.005-.214-.203s-.189-.186-.153-.576c.036-.39.358-.505.52-.505.16 0 .232.048.304.125.071.078-.01.84.08 1.014.09.174.367.415.456.511.041.044.193.293.26.525.138-.076.395-.219.538-.28-.177-.246-.375-.504-.555-.742-.649-.874.876-1.237 1.486-1.356l.068-.013.03-.01c-.09-.39-.142-.749.049-.91.105-.268.352-.487.798-.619l.005-.002.01-.003c.032-.013.065-.024.1-.033l.02-.005.02-.005.078-.017.046-.008.04-.006.039-.005.05-.005.033-.004.05-.003c.016 0 .031-.002.047-.003l.052-.001h.052l.03-.001zM29.6 10.99c.187 0 .252.022.264.216l.002.08v.51c0 .2-.042.227-.63.298-.311.04-.538.248-.571.825l-.004.152v5.72c0 .924.25 1.202 1.021 1.23l.142.003h1.192c.378 0 .616-.227.827-.836.124-.352.205-.47.398-.491l.078-.004h.66c.14 0 .307.113.307.34 0 .155-.391 1.387-.532 2.265-1.262-.07-2.538-.184-4.261-.184-1.907 0-2.888.184-3.449.184-.056 0-.103-.036-.12-.115l-.006-.069v-.58c0-.146.031-.198.155-.236l.07-.019.518-.114c.293-.064.4-.35.418-.806l.002-.142v-6.231c0-.552-.111-.835-.602-.892-.42-.051-.54-.103-.558-.282l-.003-.057v-.539c0-.183.028-.226.196-.226.45 0 1.234.184 2.328.184 1.219 0 1.85-.184 2.158-.184zm36.793.048c.14 0 .187.015.198.134l.002.07v.27c0 .125-.037.202-.115.221-.487.126-.604.177-.618.6l-.001.105v3.801c0 3.007-2.106 3.75-2.815 3.79l-.06.002h-.22v-1.1c.162.03.314.058.477.058.705 0 .848-.284.858-1.708l.001-.193V12.39c0-.434-.152-.617-.582-.656-.18-.016-.227-.054-.237-.138l-.002-.045v-.328c0-.097.048-.184.144-.184.162 0 .82.126 1.557.126.659 0 1.108-.126 1.413-.126zm-50.801 5.957c-.427.239-.655.841-.509 1.346.146.505.61.72 1.037.48.427-.239.655-.841.508-1.346-.146-.504-.61-.72-1.036-.48zm.29.302c.215 0 .393.168.442.418.06.305-.098.636-.352.738-.052.02-.105.031-.158.031-.216 0-.393-.168-.443-.417-.06-.31.094-.634.353-.738.051-.021.105-.032.158-.032zm0 .146c-.035 0-.07.008-.104.021-.192.077-.31.335-.263.575.043.222.224.35.403.278.192-.077.31-.334.263-.574-.035-.18-.155-.3-.3-.3zm35.896-6.416c.114 0 .325.029.63.058.296.038.698.067 1.165.067.23 0 .44-.02.698-.029.267-.019.582-.029 1.013-.029 1.785 0 2.273.917 2.273 1.756 0 .73-.475 1.384-1.113 1.703l-.139.063 1.93 2.508c.45.59.736.55.736.83 0 .29-.45.3-.717.3-.98 0-1.704-.454-2.308-1.237l-.128-.172-1.27-1.795h-.353v1.602c0 .52.095.57.62.705.062.015.098.067.11.152l.005.07v.27c0 .183-.038.202-.2.202-.259 0-.775-.126-1.414-.126-.631 0-1.194.126-1.414.126-.14 0-.188-.014-.199-.133l-.002-.07v-.27c0-.125.039-.203.115-.221.488-.126.605-.177.62-.6l.001-.105v-4.265c0-.376-.076-.569-.411-.607-.28-.035-.364-.07-.38-.185l-.002-.047v-.366c0-.126.02-.155.134-.155zm-17.45-.058c2.245 0 3.916 1.254 3.916 3.57 0 2.122-1.671 3.57-3.916 3.57s-3.917-1.255-3.917-3.57c0-2.122 1.672-3.57 3.917-3.57zm11.385.058c.143 0 .41.029.802.058.344.033.772.059 1.296.066l.27.001h.498c.524 0 .916-.02 1.222-.028.237-.016.419-.025.565-.029h.189c.01.675.106 1.273.106 1.447 0 .097-.027.166-.114.187l-.059.006h-.467c-.087 0-.191-.039-.22-.145-.169-.61-.264-.678-.505-.684l-.059-.001h-1.108v2.2h1.394c.22 0 .25-.029.345-.473.015-.07.036-.133.098-.155l.055-.009h.534c.106 0 .172.029.172.183 0 .203-.057.473-.057.86 0 .385.057.635.057.8 0 .096-.033.16-.116.178l-.056.005h-.544c-.086 0-.153-.03-.2-.425-.017-.14-.118-.196-.266-.209l-.078-.003h-1.338v1.587c.012.743.177.797 1.605.797.382 0 .507-.077.65-.54.084-.284.139-.338.23-.347l.037-.001h.516c.124 0 .162.039.162.135 0 .164-.229.965-.324 1.563-.565-.058-1.815-.125-2.99-.125-1.3 0-1.968.125-2.35.125-.036 0-.066-.022-.08-.07l-.006-.055v-.396c0-.096.02-.133.098-.159l.054-.015.354-.077c.195-.043.27-.23.284-.53l.003-.117v-4.245c0-.376-.077-.569-.411-.607-.28-.035-.364-.07-.38-.184l-.002-.048v-.367c0-.125.019-.154.134-.154zm-6.774-.145c.19 0 .235.147.367.197l.09.015h4.777c.357 0 .283-.168.497-.205l.095-.007h.41c.077 0 .134.039.134.116 0 .087-.219 1.235-.258 1.398-.03.117-.079.183-.141.205l-.05.008h-.41c-.096 0-.182-.067-.2-.164-.035-.182-.093-.427-.397-.474l-.11-.008h-1.184v4.65c0 .493.038.695.687.744.104.007.148.049.16.13l.003.053v.318c0 .107-.029.193-.106.193-.2 0-.773-.126-1.623-.126s-1.423.126-1.624.126c-.061 0-.092-.055-.101-.132l-.004-.061v-.318c0-.116.038-.174.162-.183.607-.046.68-.225.687-.649v-4.745l-1.402-.001c-.21.004-.294.08-.43.445-.049.128-.143.183-.261.198l-.074.004h-.43c-.077 0-.153-.038-.153-.135 0-.135.306-1.418.325-1.514.007-.047.051-.069.118-.076l.053-.002h.393zm23.48.145c.107 0 .15.014.16.134l.003.069v.27c0 .125-.038.202-.115.221-.487.126-.604.176-.619.6l-.001.105v4.226c0 .52.096.57.62.705.062.015.098.067.11.152l.005.07v.27c0 .183-.038.202-.2.202-.258 0-.774-.125-1.414-.125-.63 0-1.193.125-1.414.125-.14 0-.187-.014-.198-.133l-.002-.07v-.27c0-.125.037-.202.114-.221.488-.126.605-.177.62-.6v-4.331c0-.521-.094-.57-.62-.705-.061-.015-.098-.068-.11-.152l-.004-.07v-.27c0-.183.037-.202.2-.202.182 0 .717.125 1.414.125.65 0 1.222-.125 1.452-.125zM13.495 6.08h-.033l.031.006-5.005.039c-.122 0-.218.043-.271.12-.045.067-.058.154-.037.25l.022.074 4.125 11.03c.119.319.236.448.405.448.076 0 .166-.025.269-.075 2.11-1.371 2.798-1.67 4.593-2.255.034-.013.065-.047.087-.099.043-.098.045-.236.008-.371l-.034-.1-1.317-3.112-2.397-5.533c-.02-.07-.05-.13-.086-.185-.088-.108-.184-.19-.284-.22l-.076-.011v-.006zm20.834 5.756c-1.414 0-1.93 1.467-1.93 2.702 0 1.437.497 2.702 1.93 2.702 1.414 0 1.93-1.467 1.93-2.702 0-1.438-.497-2.702-1.93-2.702zm-13.39 1.926s.04.111.012.204c-.028.093-.1.185-.1.185s.074-.012.126-.089c.086.126.34.36.469.694.14.36.164.72.168.79v.006c.008-.075.034-.434-.068-.764l-.04-.108c-.121-.294-.37-.642-.492-.712.025-.128-.076-.206-.076-.206zm-5.54-2.098l.015.002.007.083c.056.682.182 2.914-.562 3.132-.88.257-1.69-.392-2.244-.856-.554-.463-1.286-1.483-1.286-1.483l.02.02c.151.14 1.16 1.003 2.798.526 1.058-.377 1.226-1.139 1.252-1.424zm39.207.182c-.192 0-.362.067-.402.2l-.008.06v2.191h.229c.879 0 1.26-.31 1.26-1.226 0-.723-.325-1.225-1.079-1.225zm-43.268.488c.305 0 .62.212.62.212s-.42-.055-.684 0c-.198.04-.379.134-.457.178l-.04.024s.126-.346.458-.405c.034-.006.068-.01.103-.01zm-.753-4.627c.325 0 .717.333 1.045.864.07.113-.405.644-.405.644s.733.006.788.16c.393 1.084.32 2.108-.16 2.286-.48.18-1.188-.555-1.58-1.64-.393-1.085-.321-2.109.16-2.288.048-.018.099-.026.152-.026zm2.494-.18c.307 0 .672.302.973.781.065.104-.39.597-.39.597h.072c.18.004.632.025.672.137.359.99.279 1.932-.179 2.102-.457.17-1.118-.496-1.477-1.487-.358-.992-.278-1.933.18-2.103.047-.018.097-.026.15-.026zm11.936-4.13c.113 0 .32.029.62.057.29.037.684.065 1.144.065.225 0 .431-.019.685-.028.262-.018.572-.028.994-.028 1.753 0 2.232.89 2.232 1.707 0 .71-.466 1.345-1.093 1.655l-.136.062 1.895 2.439c.44.572.722.534.722.807 0 .28-.441.29-.704.29-.963 0-1.672-.441-2.266-1.202l-.125-.168-1.248-1.744h-.346v1.557c0 .506.093.554.609.685.06.015.096.066.108.148l.005.068v.262c0 .178-.038.197-.197.197-.253 0-.76-.122-1.388-.122-.62 0-1.173.122-1.388.122-.137 0-.184-.014-.195-.13l-.003-.067v-.262c0-.123.038-.198.113-.216.476-.121.593-.171.608-.576l.002-.109V4.721c0-.366-.075-.554-.404-.591-.275-.033-.357-.067-.372-.18l-.003-.045v-.357c0-.121.018-.15.131-.15zm40.463 0c.09 0 .138.025.193.087l.042.054 3.987 4.37V4.628c0-.393-.197-.469-.723-.553-.09-.016-.12-.06-.127-.112l-.003-.039v-.45c0-.046.018-.075.084-.075.14 0 .581.122 1.22.122.515 0 .984-.122 1.078-.122.06 0 .114.03.133.09l.007.051v.328c0 .094-.028.188-.158.207-.469.069-.593.162-.609.597l-.002.116v5.262c0 .101-.013.157-.082.173l-.049.005h-.75c-.201 0-.278-.034-.379-.139l-.053-.058-3.93-4.268v3.105c0 .506.14.6.722.685.11.015.141.07.148.131l.002.038v.31c0 .121-.056.196-.216.196-.234 0-.6-.122-1.097-.122-.403 0-.826.122-1.022.122-.137 0-.191-.041-.204-.142l-.003-.055v-.338c0-.065.018-.13.075-.14.566-.096.68-.168.693-.583l.002-.102V3.54c0-.052.011-.11.069-.132l.052-.009h.9zm-15.341 0c.112 0 .319.029.62.057.29.037.684.065 1.144.065.365 0 .693-.019 1.032-.028.346-.018.702-.028 1.144-.028 1.144 0 3.489.58 3.489 3.199 0 2.278-1.613 3.564-3.79 3.564-.76 0-1.238-.122-2.242-.122-.759 0-1.2.122-1.443.122-.036 0-.066-.021-.079-.067l-.006-.055v-.384c0-.104.028-.142.281-.17.453-.052.493-.193.496-.693V4.72c0-.366-.074-.554-.402-.59-.275-.034-.358-.068-.372-.18l-.003-.046v-.357c0-.15.019-.15.13-.15zm-6.37 0c.091 0 .14.025.193.087l.042.054 3.987 4.37V4.628c0-.393-.197-.469-.723-.553-.09-.016-.12-.06-.129-.112l-.003-.039v-.45c0-.046.02-.075.085-.075.141 0 .583.122 1.22.122.516 0 .986-.122 1.08-.122.059 0 .113.03.132.09l.007.051v.328c0 .094-.027.188-.159.207-.467.069-.591.162-.608.597l-.002.116v5.262c0 .101-.013.157-.082.173l-.049.005h-.75c-.201 0-.278-.034-.38-.139l-.052-.058-3.93-4.268v3.105c0 .506.14.6.722.685.11.015.141.07.149.131l.002.038v.31c0 .121-.057.196-.217.196-.235 0-.6-.122-1.097-.122-.403 0-.825.122-1.022.122-.137 0-.191-.041-.204-.142l-.003-.055v-.338c0-.065.02-.13.075-.14.566-.096.68-.168.694-.583l.001-.102V3.54c0-.052.012-.11.07-.132l.052-.009h.9zm14.064 0c.14 0 .403.029.787.057.338.032.758.057 1.273.063l.266.002h.488c.515 0 .9-.019 1.2-.028.232-.015.41-.024.554-.027h.187c.01.656.103 1.237.103 1.406 0 .094-.026.162-.11.182l-.059.006h-.46c-.084 0-.187-.038-.215-.141-.165-.589-.257-.658-.491-.665l-.062-.001h-1.089V6.39h1.37c.216 0 .244-.029.338-.46.015-.068.035-.129.096-.15l.054-.01h.525c.103 0 .169.029.169.179 0 .197-.057.46-.057.835 0 .374.057.618.057.778 0 .094-.032.155-.114.173l-.055.005h-.535c-.084 0-.15-.028-.197-.412-.016-.137-.114-.191-.26-.204l-.078-.003h-1.313v1.445c0 .816.113.872 1.576.872.376 0 .498-.075.638-.525.083-.275.137-.328.227-.337l.036-.001h.506c.122 0 .16.037.16.131 0 .16-.226.938-.32 1.52-.553-.056-1.781-.122-2.935-.122-1.275 0-1.932.122-2.308.122-.035 0-.065-.021-.078-.067l-.006-.055v-.384c0-.095.02-.13.096-.155l.054-.014.347-.075c.191-.042.265-.225.279-.515l.002-.114V4.72c0-.366-.074-.554-.403-.591-.275-.033-.358-.067-.373-.18l-.002-.045v-.357c0-.121.018-.15.132-.15zm-21.494 0c.142 0 .404.029.789.057.338.032.758.057 1.273.063l.265.002h.488c.516 0 .9-.019 1.2-.028.233-.015.412-.024.555-.027h.186c.01.656.104 1.237.104 1.406 0 .094-.026.162-.11.182l-.059.006h-.46c-.084 0-.188-.038-.216-.141-.164-.589-.256-.658-.49-.665l-.063-.001H38.71V6.39h1.37c.215 0 .243-.029.337-.46.015-.068.036-.129.097-.15l.053-.01h.525c.104 0 .17.029.17.179 0 .197-.057.46-.057.835 0 .374.057.618.057.778 0 .09-.03.15-.105.17l-.065.008h-.534c-.084 0-.15-.028-.197-.412-.016-.137-.115-.191-.261-.204l-.077-.003H38.71v1.543c.012.723.174.774 1.576.774.375 0 .497-.075.638-.525.083-.275.137-.328.227-.337l.036-.001h.506c.121 0 .16.037.16.131 0 .16-.226.938-.32 1.52-.553-.056-1.782-.122-2.936-.122-1.275 0-1.932.122-2.307.122-.035 0-.065-.021-.078-.067l-.006-.055v-.384c0-.095.02-.13.096-.155l.054-.014.347-.075c.191-.042.265-.225.278-.515l.003-.114V4.72c0-.366-.075-.554-.403-.591-.275-.033-.358-.067-.373-.18l-.002-.045v-.357c0-.121.018-.15.13-.15zm-.97 0c.104 0 .146.014.156.13l.003.068v.262c0 .122-.038.197-.112.216-.477.121-.593.17-.608.575l-.002.11v4.108c0 .506.094.554.61.685.06.015.095.066.107.148l.005.068v.262c0 .178-.038.197-.197.197-.253 0-.76-.122-1.389-.122-.618 0-1.172.122-1.388.122-.137 0-.183-.014-.194-.13l-.003-.067v-.262c0-.123.038-.198.113-.216.476-.121.593-.171.608-.576l.001-.109V4.758c0-.506-.093-.553-.609-.684-.06-.016-.096-.067-.108-.149l-.005-.067v-.262c0-.179.038-.198.197-.198.179 0 .704.122 1.388.122.639 0 1.201-.122 1.427-.122zM26.198 0c.165 0 .206.124.206.262v.482c0 .165-.15.206-.316.247-.565.138-.66.33-.84.717l-3.661 7.997c-.083.166-.165.4-.345.4h-.922c-.165 0-.262-.18-.345-.358l-3.551-7.888c-.303-.675-.386-.799-.991-.868-.125-.014-.18-.11-.18-.206V.138c0-.097.083-.138.22-.138.386 0 1.089.18 2.08.18 1.046 0 1.83-.18 2.244-.18.137 0 .192.124.192.248v.468c0 .193-.055.261-.206.275-.578.07-.688.124-.688.386 0 .165.151.537.316.936l2.037 4.681 1.873-4.144c.427-.936.468-1.116.468-1.335 0-.22-.055-.358-1.06-.524-.096-.014-.151-.068-.151-.206V.262c0-.151.014-.262.22-.262.33 0 .894.18 1.79.18.784 0 1.335-.18 1.61-.18zM53.25 4.195c-.674 0-.735.09-.74.263v4.109c0 .666.262.928 1.172.928 1.388 0 1.988-1.323 1.988-2.664 0-1.604-.741-2.636-2.42-2.636zM.93 8.22c-.721.21-.913.652-.913.652s.454-.38.955-.528c.501-.148 1.181.007 1.181.007s-.5-.342-1.222-.131zm2.184.002c-.43.032-.686.309-.686.328 0 0 .25-.2.734-.206.422-.006.607.224.647.283l-.004-.006-.02-.029c-.073-.1-.269-.328-.547-.367l-.124-.003zm-1.805-.56c-.473.045-.927.38-.927.38l.038-.02c.111-.053.454-.203.846-.25.4-.05.768.094.94.116-.05.1-.023.188-.023.188s.055-.13.132-.213c.076-.083.208-.102.208-.102s-.131-.066-.245.033c-.134-.092-.612-.166-.97-.132zM27.79 4.196c-.189 0-.356.065-.395.194l-.008.06v2.128h.225c.862 0 1.238-.3 1.238-1.192 0-.702-.32-1.19-1.06-1.19zm-15.85.963c-.166.009-.486.04-1.121.058-.69.02-1.099-.032-1.202.003-.103.035-.045.212.007.236.051.023.822.044 1.304.012.541-.036.768 0 1.088-.064.024-.03-.017-.248-.077-.245z"/>
</svg>
