<svg xmlns="http://www.w3.org/2000/svg" width="53" height="24" viewBox="0 0 53 24">
    <path d="M17.046 19.136c.206.214.322.477.322.754 0 .326-.155.59-.322.753-.322.314-.76.641-1.338.88-.489.2-1.016.301-1.57.301H4.104c-1.132 0-2.161-.452-2.908-1.168C.45 19.927 0 18.923 0 17.817V8.02c0-1.106.463-2.11 1.196-2.84C1.93 4.453 2.96 4 4.091 4h10.035c.553 0 1.093.113 1.57.301.668.264 1.093.603 1.491 1.03.168.176.322.428.322.754 0 .276-.103.54-.322.754-.205.2-.488.314-.771.314-.283 0-.566-.113-.772-.314-.296-.29-.45-.427-.785-.565-.232-.1-.489-.151-.746-.151H4.078c-.527 0-1.016.213-1.364.553-.347.339-.566.816-.566 1.331v9.798c0 .515.22.992.566 1.331.348.34.837.553 1.364.553h10.035c.27 0 .514-.05.746-.151.206-.088.424-.214.617-.414.206-.201.49-.315.772-.315.31.026.58.126.798.327zM14.1 17.88c-.039-.779-.579-1.96-1.917-2.123H7.384l5.52-5.162c.231-.214.758-.955.385-1.746-.295-.641-.797-.905-1.672-.905h-6.87c.026.892.476 1.96 1.685 2.148h3.924l-5.802 5.326c-.231.226-.617.904-.321 1.583.27.615.746.879 1.608.879H14.1zm15.72-4.861v3.957c0 1.457-.462 2.738-1.492 3.743-.939.917-2.11 1.281-3.409 1.281-2.534 0-3.846-1.922-3.846-1.922.681-.666 1.633-1.068 2.56-.527.154.088.63.339 1.3.339 2.353 0 2.726-2.048 2.726-2.663-.81.477-1.736.716-2.753.716-1.325 0-2.495-.415-3.46-1.219l-.013-.012c-.952-.892-1.441-1.985-1.441-3.266v-1.294c0-1.256.489-2.349 1.44-3.24.966-.905 2.136-1.357 3.474-1.357 1.776 0 3.088.866 3.693 1.582.154.189.244.415.244.666 0 .29-.116.565-.322.754-.193.188-.476.314-.772.314-.295 0-.578-.126-.771-.302-.682-.69-1.325-.904-2.072-.904-.759 0-1.376.251-1.916.754-.54.49-.785 1.055-.798 1.758-.013.314-.013.98 0 1.269 0 .728.257 1.294.785 1.796.553.49 1.183.741 1.93.741.733 0 1.363-.238 1.93-.74.295-.277.5-.566.63-.905.102-.264.321-.83 1.042-1.106.617-.238 1.312-.213 1.312-.213zm10.267.213c-.733.29-.94.842-1.042 1.106-.129.339-.335.628-.63.904-.567.503-1.197.741-1.93.741-.734 0-1.364-.238-1.93-.74-.527-.503-.785-1.069-.785-1.797-.013-.302-.013-.967 0-1.269.013-.716.258-1.268.798-1.758.54-.503 1.17-.754 1.917-.754.759 0 1.402.214 2.071.904.18.189.463.302.772.302s.579-.126.772-.314c.193-.189.321-.465.321-.754 0-.251-.09-.49-.244-.666-.605-.716-1.917-1.582-3.692-1.582-1.338 0-2.509.452-3.474 1.356-.952.892-1.44 1.985-1.44 3.241-.014.201-.014 1.03 0 1.294.012 1.281.488 2.374 1.44 3.266l.013.012c.965.804 2.136 1.219 3.46 1.219 1.017 0 1.943-.239 2.754-.716 0 .615-.386 2.663-2.74 2.663-.67 0-1.145-.251-1.3-.34-.926-.54-1.878-.138-2.56.528 0 0 1.312 1.922 3.847 1.922 1.3 0 2.47-.377 3.409-1.281 1.042-1.018 1.492-2.286 1.492-3.743v-3.957c.026 0-.682-.025-1.3.213zm12.903-1.055c0-1.268-.489-2.361-1.44-3.253-.965-.904-2.136-1.357-3.474-1.357s-2.509.453-3.474 1.357c-.952.892-1.44 1.985-1.44 3.24-.013.202-.013 1.03 0 1.294.012 1.282.488 2.375 1.44 3.266l.013.013c.965.804 2.136 1.218 3.461 1.218 1.325 0 2.496-.414 3.46-1.218l.013-.013c.952-.891 1.441-1.984 1.441-3.266.013-.263.013-1.092 0-1.28m-4.914 3.805c-.733 0-1.364-.238-1.93-.74-.527-.503-.785-1.069-.785-1.797-.012-.302-.012-.967 0-1.269.013-.716.258-1.268.798-1.758.54-.503 1.17-.754 1.917-.754.759 0 1.377.251 1.917.754.527.49.785 1.055.797 1.77.013.29.013.955 0 1.27-.012.715-.257 1.293-.784 1.783-.566.503-1.197.741-1.93.741M18.242 7.944c-1.145 0-2.174.93-2.174 1.935v8.001c1.145 0 2.174-.93 2.174-1.934V7.944z"/>
</svg>
